/* XPM */
static char *_510942100552[] = {
/* columns rows colors chars-per-pixel */
"64 64 44 1 ",
"  c #060604",
". c #080A07",
"X c #0C0D0B",
"o c #0F110E",
"O c #11130F",
"+ c #141613",
"@ c #161814",
"# c #191A16",
"$ c #1C1D1A",
"% c #1F211D",
"& c #21221E",
"* c #1F2120",
"= c #242522",
"- c #2A2625",
"; c #262825",
": c #292A26",
"> c #272A28",
", c #2B2D2A",
"< c #312E2D",
"1 c #2E312D",
"2 c #31322E",
"3 c #2F3130",
"4 c #343532",
"5 c #393635",
"6 c #363835",
"7 c #393A36",
"8 c #373938",
"9 c #3B3D3A",
"0 c #3E413D",
"q c #41423E",
"w c #3F4240",
"e c #434542",
"r c #484745",
"t c #464945",
"y c #484A46",
"u c #474B48",
"i c #4A4C49",
"p c #4D514D",
"a c #50524F",
"s c #4F5350",
"d c #525552",
"f c #575956",
"g c #585A57",
"h c #5B5D5A",
/* pixels */
"=8wette9890q00qqww03>*000www00qtqtypytqt411*10wsspswuuwuuupsu8ww",
"=9wweeee00qqqqqqw01>;*100wpp0007qttttttt00010wwsswuw8uwuuupsuuuu",
"*899860we00eqpqq031>**00;000000000077tqq0101000wupssuuwwwwwwuwuu",
"+,331>44t00qpqqq001>;*10000000000q067qqq01>>003w0usspw0600806www",
"*348966402:0000233=*$$,,000::020707227710;>%300wwuwww0w8wuwwwwup",
"@>33631,;;;:221001*%@@;;&%;&;;11222222::1>>%11100u8080ww0uw0uwwp",
"*,336341;;:1102001;&$#;,,0;01::;112211::>>>%14160038w0041w66006w",
"X$@**#**#@@%%&#@*%%%@o##%%#%%%%%%%%%%%%%%@%@>6300w00uww16w010w6w",
"&-224<250:#<55750:1;%#;;221:::::1:122::;&&:%1100667w000616600110",
"&<25544422&257qq0010&%0:772221:::::22127211%;110w7ww00610ww0060w",
"&<79qq9542&70qrq0021&%00777722221122227q711%1000wwww06060uw66600",
"&<77qee962&7qeyyu002%%;:7777272227222::2:::%;1:0000w00ww6w016660",
"#,227q9553*5qer00066;%222727626207777777612;12:10060066600660660",
"&:42454485*5q0w90022;;7777777777000qqqqq062;261070660666666ww616",
"&224443455*555950211%%27qq077q707770077071:#:200606606606666w616",
"%:224<,5><$33<3321::%%27qq777770770qq0qy072%121066116616111161;;",
"#:<<2<<,2&,<75011:::%#1401011070777qt07q0:1%:;;0161:221612611:;:",
"X#$%==%%&#@#&%#####%##120101102277770767001O%%%#%%%%;%%%%%%%%%#%",
"O%%&----,&&,::::;:;:&&270001:020q077007001:O%;%%%%%:;;;%%::;;;%:",
"#&--,<,>2<555225221::%:1020:22007077tq0q010%:;;1%%:1112:1111:::1",
"+-3<43342227657762:1%%:10000000277770000011%;;>1;;16160167766111",
"+,59999e09qqqrqq0772:&22uw00222270qqt077000%;30>::226007ttt00711",
"+-5599eeqqqqqyq9qq72:&11ww2122007tqt0000000%1001;:116000tt000026",
"$<59qerrrrrrrrq9q777::::0020000027070000t02;0000;1210t0t00660070",
"$368qqqqffqasieeqq76,*1,0000330307700062000>000011460wuwtttt0007",
"$<9wqqqqqqqqtt0wqq62;*32030204000777777011%#1031&;>16www770t00t0",
"$,69qqqqqqqqttww002:%%1103114030626777703>*%0110;>11100870007216",
"&,48qqqqqqqqtw9w602:%%,,30311333112662221>%%1;>1%%&;&;>111126116",
"&240qqqqqpuisiww22::##;;1231>,,,1::1121:33>%3111%;>>111111116116",
"@206qqdq000qu088000:%#%%%;,*%***%%#%%&&;@%$o$%%$@#%%***;%;%%%%@#",
"#206qqqqpsppsuwt0011&%%%%*>***%@%%##%%&;*>*$>*>;>>>>>>>*%1;%:1:6",
"&600qfdqqq00007020:1;%,,,343,,*$;;:11::1388>8313>>1>111>6w6;:160",
"O000yiyaeew9witq7641*%>>,,1,>1>$%;:10>113>0>0;10%,44466146616t99",
"O:60yyqtt99wt00q0061=%1,084666>@;::000100100w0tw0000tie760teeuet",
"@100qy0te960w96q8711=%118890991$;:1000600000www044400t078808909t",
"#100qqtiww088w00641>=*111600641=;00u00000000wpuw0000000qt066etwt",
"#:000qtt90980q008711=%13360931,%;0000000001000wwwtww00tpteeiddti",
"#;1270009348q21443>>**44976646,%;330003000>000000060000qeeiiiitd",
"##:11341,>,42;::>;=*%*460988664%1001uw003010000w0060ut0tiiieetih",
"@#%%%%==%,1,:&::=>%&$%4600e063,*,>0000u00w100w0000wppqtutet9eiti",
".Oo%%&+#########%oO@@%>3009622,=;;10>000101100309eeeeeee9tye8790",
"#&&,&<&-::--&-;&%%=;%%10898644,*%>10100301111110998etitq80tte99e",
"#&,,-<-<:&:::::&>==>=;11666441=@@;3001010133;%>099669te866684444",
"@<47207755255505711>>>>>888641=+;01300110100>>3049iiiitqfdiieett",
"*5we9rqeqqqqqqryw007,>60we9996-$10,30000000010036etteyafgffditid",
"-599599eqqqqqqqqt0071100eee9983=13000000w0030w00w98689etdaidpidg",
"-www9qqrqqqqyqqq062111279ww986,*>100010000000003999yy964w9qet9et",
"*59e0rerqqqqqqtt7800>>2799w964-$1;100000100000>0t989868te9666448",
"*558eqeree9qqqqq061,,,4<9984,--=::112711::12772265,44<<<445<5458",
"$335w59599qw9qqq2776-=<3554,-,=*;;:117:121:12262<4>,3>34444-4<3,",
"*559ree9qerqr5qr6006=+%====$@@+X##%%&;&;;%%%%%%%%=$==$$===%@***#",
"*59wrrrrrrrq5r5r4060,=,-<44---*$::6222:221111:::-,=--$$-,<<,5444",
"$358rweerrwww5ww00041,114954-=**&:662212611221::4534<**,35559955",
"$335wwwerw55rrrw0001;*11qew5>-==::600727076777705945<=-39rer0055",
"*<35ewqr995r5rrr0010**009qq5<>=*::6700600777770qet995--69rqe0e54",
"$<<5w559w5wrrrrq000,;;309q95<<-$1177076077000077te995=>49e9rei88",
"+,406990w9wwrrwr0001:100t210612%1177tq002006000qirtt5**49q9erq5r",
"#116690qw99wwwwwww0111000077616%::20tt77006200ttttee5=$,59wwr55r",
"@>=1166653358www6611;;111700117%111707771201070qrw9w6=*>9rir955r",
"O=>31311<<<3585561>>>;110uu0226%2112777711117277ww888--4<595<55r",
".**1=>>>=;=;->=*;&%;%%:;1211;%;#%%::1:::;:1&0;,1331,>$#---<----<",
"X*%=%*=:$%*=>==*%@@#@@%%@%#%;%;%%%;:::::=%;%%%=%,,3,>$+*<<<<----",
"%1131346>,,3465311;1&&1110027676627777770=0&;;30000005353-55555q",
"%116444313,33443;;;1;&101010760726700721:0&%:;300030w99er555<<55"
};
