/* XPM */
static char *_511013215972[] = {
/* columns rows colors chars-per-pixel */
"64 64 251 2 ",
"   c #020202",
".  c #0C0101",
"X  c #03040B",
"o  c #080809",
"O  c #140101",
"+  c #1B0000",
"@  c #140A0A",
"#  c #191A0A",
"$  c #1A1C1B",
"%  c #181A16",
"&  c #0B1511",
"*  c #220000",
"=  c #2A0504",
"-  c #390605",
";  c #37160D",
":  c #231B1C",
">  c #271818",
",  c #361917",
"<  c #261709",
"1  c #1C231C",
"2  c #172418",
"3  c #102316",
"4  c #292507",
"5  c #28241A",
"6  c #39241A",
"7  c #3C3702",
"8  c #171D21",
"9  c #281B23",
"0  c #341E20",
"q  c #1C2323",
"w  c #1A2724",
"e  c #232323",
"r  c #2C2C2C",
"t  c #272827",
"y  c #372926",
"u  c #36352B",
"i  c #382D33",
"p  c #2A3533",
"a  c #383837",
"s  c #28352D",
"d  c #57070A",
"f  c #4B1619",
"g  c #5A1317",
"h  c #540B0F",
"j  c #6B0303",
"k  c #670809",
"l  c #740202",
"z  c #7C0101",
"x  c #780909",
"c  c #660C12",
"v  c #780B14",
"b  c #681516",
"n  c #771718",
"m  c #6E120C",
"M  c #4C2816",
"N  c #6C3413",
"B  c #731824",
"V  c #462926",
"C  c #473527",
"Z  c #453A39",
"A  c #503031",
"S  c #71332B",
"D  c #3A463A",
"F  c #2D423C",
"G  c #544E0B",
"H  c #654626",
"J  c #724A35",
"K  c #625C23",
"L  c #363E41",
"P  c #453E42",
"I  c #3D4846",
"U  c #384D4E",
"Y  c #484747",
"T  c #534B4B",
"R  c #49524C",
"E  c #575757",
"W  c #4D5452",
"Q  c #78534C",
"!  c #655B5B",
"~  c #785655",
"^  c #734D47",
"/  c #57615A",
"(  c #65635C",
")  c #766557",
"_  c #6C5D62",
"`  c #5B6A66",
"'  c #5F706D",
"]  c #6B6C6C",
"[  c #666666",
"{  c #756B6C",
"}  c #68736B",
"|  c #73736B",
" . c #7A7569",
".. c #766B73",
"X. c #6C7473",
"o. c #6B7975",
"O. c #747474",
"+. c #747B7B",
"@. c #7B7B7B",
"#. c #787876",
"$. c #6D6A72",
"%. c #840201",
"&. c #8B0101",
"*. c #84020A",
"=. c #890807",
"-. c #930101",
";. c #9B0101",
":. c #93020B",
">. c #9A020B",
",. c #970C06",
"<. c #89150A",
"1. c #981208",
"2. c #860915",
"3. c #980B15",
"4. c #891517",
"5. c #981619",
"6. c #A40101",
"7. c #AC0201",
"8. c #AB030B",
"9. c #A70909",
"0. c #B40201",
"q. c #BB0201",
"w. c #BD0901",
"e. c #B5010B",
"r. c #BB020B",
"t. c #B40A06",
"y. c #A70814",
"u. c #BA0814",
"i. c #AF160F",
"p. c #902811",
"a. c #B32713",
"s. c #941725",
"d. c #A61B23",
"f. c #AC1824",
"g. c #8E2D2E",
"h. c #BA2B27",
"j. c #C30201",
"k. c #CB0101",
"l. c #C4010A",
"z. c #C60903",
"x. c #D30101",
"c. c #D70407",
"v. c #C50715",
"b. c #C81013",
"n. c #E3090D",
"m. c #CF2B27",
"M. c #884B34",
"N. c #B65735",
"B. c #996F1C",
"V. c #845857",
"C. c #88514D",
"Z. c #926458",
"A. c #A66A53",
"S. c #A76A4B",
"D. c #855E62",
"F. c #876766",
"G. c #966968",
"H. c #837979",
"J. c #947371",
"K. c #A86A68",
"L. c #AF7671",
"P. c #AE5755",
"I. c #CD7D78",
"U. c #B03F37",
"Y. c #78817A",
"T. c #6D847E",
"R. c #AFB02B",
"E. c #AAA407",
"W. c #CCB412",
"Q. c #CABD30",
"!. c #F5EE32",
"~. c #E0CD2A",
"^. c #87837B",
"/. c #928A78",
"(. c #B58A79",
"). c #BDB06B",
"_. c #B6A44B",
"`. c #CD9277",
"'. c #E28F71",
"]. c #BFC16D",
"[. c #F5D250",
"{. c #FCEC48",
"}. c #EBE35F",
"|. c #BBC121",
" X c #7D7D81",
".X c #827C81",
"XX c #927F83",
"oX c #BD7D83",
"OX c #F37C80",
"+X c #798484",
"@X c #7F938A",
"#X c #858584",
"$X c #858B84",
"%X c #8B8B86",
"&X c #858C8B",
"*X c #8C8C8C",
"=X c #8A8688",
"-X c #938C8C",
";X c #948989",
":X c #88928B",
">X c #93928D",
",X c #97978B",
"<X c #8C8C91",
"1X c #8A8B97",
"2X c #938C93",
"3X c #9A8E94",
"4X c #978C98",
"5X c #8C9393",
"6X c #8D9A94",
"7X c #8E9C9A",
"8X c #889396",
"9X c #949493",
"0X c #9A9494",
"qX c #949A95",
"wX c #9B9A95",
"eX c #94959A",
"rX c #9B959A",
"tX c #949B9A",
"yX c #9B9A9B",
"uX c #BB8A87",
"iX c #A2959C",
"pX c #A59798",
"aX c #AD9091",
"sX c #9AA29B",
"dX c #8DA19F",
"fX c #A9A59D",
"gX c #999AA3",
"hX c #8C8FA2",
"jX c #A59BA4",
"kX c #9DA7A6",
"lX c #A2A4A4",
"zX c #ABABAB",
"xX c #A7A6A8",
"cX c #B5A9A9",
"vX c #B2ACB3",
"bX c #AEB1B0",
"nX c #C78986",
"mX c #D78788",
"MX c #D6948C",
"NX c #C69A94",
"BX c #D09494",
"VX c #E69598",
"CX c #EC8A8C",
"ZX c #E59CA1",
"AX c #FFB7B6",
"SX c #FEAFAD",
"DX c #D29BA3",
"FX c #E8D8A6",
"GX c #FFB8C4",
"HX c #D5D3CD",
"JX c #CFCECD",
/* pixels */
"T T T G G R.R.G 7 G M.p.p.p.g.g.g.g.U.g.^ J G N N H J H H H N N J S J S H H M N N N g.M.S S g.g.g.B g.g.g.p.G G G R.|.G G C R U ",
"..{ K _.R.|.|.E.R._.p.<.<.n 2.<.2.v v v S P.`.'.'.`.`.`.).(.`.`.`.`.`.MX`.`.).`.'.'.P.B c b m <.v s.<.<.1.p._.R.E.Q.E.R._.K Y.` ",
") K FX}.!.!.!.W.~.~.1.t.t.6.u.i.,.,.=.=.:.i.h.U.N.N.S.S.S.Z.A.A.S.A.S.A.S.S.N.N.m.a.9.y.2.=.%.,.,.9.9.b.z.1.[.W.E.!.!.!.{.FX) [ ",
"#./.K }.~.{.!.W.{.[.a.z.z.r.l.0.6.;.-.-.;.7.t.b.m.a.M.M.M.C.M.M.J J C.N M.B.p.a.a.7.t.-.&.*.,.,.t.z.0.j.z.z.[.{.W.{.!.~.}.K  .o.",
"T.} T G 7 ].).M 4 N ,.b.z.l.l.v.w.0.7.6.&.&.;.7.0.b.f.AXZ.HX4 4 4 4 DXA SXp.a.t.9.,.z x l 4.x 5.,.t.z.k.c.9.N 7 7 ).].7 G T } } ",
"U R p u # # < 4 4 = 3.u.j.z.j.j.q.q.0.7.-.&.=.-.0.8.f.GXD.HX3 3 2 w JX0 SX<.8.9.&.l m P.mXI.(.`.CX1.0.j.v.s.- # # # 4 5 w L U W ",
"I F t r # 4 5 # 4 - 5.u.j.j.j.r.t.t.0.6.-.&.%.&.-.*.n oXV gX& w 3 3 kX@ BXB *.&.x c g aX0 V V , BX4.d.v.u.3.; # 3 2 # # 5 u D D ",
"o.} ! T R u a a u M %.t.z.j.z.q.0.9.e.8.9.-.&.z l j g XX9  XX X X &  XO XXc x l k K.aXjX4XX 8 fXcXMX'.y.u.2., D u a u R Z / W T.",
",X,X/.J.H...$.../ J z 0.j.j.j.j.q.0.0.8.8.6.;.&.*.d f G.9 ..  X X   +X. G.d x x k `.0 3XjXX X xXfXf VXs.:.4.J / ` [ F.H./.H.;X;X",
",XwX/./.XXhX.X1X[ ^ z 7.r.k.k.k.j.q.e.e.e.e.7.;.%.x g F.9 $.@ . O O ] O G.c l z b (., O 9     e # , mXs.:.n J } .X.X.XH.H./.4X4X",
"sXfXyX9XgXhX<X#XX.~ l 6.q.l.x.j.q.q.j.j.j.r.q.0.6.:.m L., H.. O . . Y.. L.v ,.,.m MX>   o o 3 3 2 y ZXn *.x J } H.%X=XhXXXhXhXhX",
"6XtXgX1XgXgX2X=X X~ x ;.0.z.c.k.q.j.j.j.j.j.q.q.0.-.v nX, pX. . .   sX  L.<.y.;.p.`.6 /.5X$ w kXxXA mX4.%.l ) / | &X1XgXhXXX@X@X",
"hXgXjXgXgXkXgX2X XD.z ;.6.q.x.k.z.j.j.j.q.q.q.0.0.9.4.nXy 0X        6XO nX4.y.9.,.CXBXfXwX# w fXDXDXOXB -.x ^ ( %XtXeXgXXX1X5X:X",
"jXjXlXgXdXgXgX=X.XV.x -.6.0.k.k.k.k.j.j.q.q.q.w.w.i.x ZXV gX      o qX> BXm 9.e.8.1.n BX6 6 , f GXg.2.2.-.x V.| 9XgX1X1XhX4X,X^.",
"iXwXsX,X:XtXrX;X X_ m &.-.;.0.z.z.x.k.j.j.q.q.0.e.3.s.DXA vX& 8 $ 8 vX> DXg.7.0.w.9.4.CXCXCXVXAXSX<.2.*.-.z ~ O.&X7XtXtXpX,XsX^.",
"yX,X,X6X6XtXwX*X X~ v &.&.-.7.z.x.c.k.l.j.q.e.9.3.2.VXJ.L kXw 8 e % xX> uXMX<.i.8.7.y.y.3.f.,.a.1.1.%.%.&.2.V.+X&XtXkXtXpX,XwX:X",
"tXtXtXkX7X7X9X&Xo.~ x :.:.&.6.0.z.c.x.j.c.v.e.5.I.aXy > Z i p F a a i Z y V uX`.5.y.u.l.z.j.z.w.7.-.&.:.:.2.V.@.$X5X7XtX0XqXwXqX",
"tX6XeXeX5X5X5X$X .V.2.8.&.%.&.7.z.k.c.n.l.u.2.VX .% a 5 y ..X.} ' #.{ 9 t a & F.VXs.v.k.c.c.w.z.w.-.%.*.>.2.D.+.:X9XgXeX9X9XqXrX",
"rX0X0X0X2X-X9X%XY.~ v &.z %.&.6.0.z.n.x.v.d.BXV u y a +X4XjXzXr a @XvXpX[ Y t r f mXd.v.x.n.n.0.-.&.z z &.v Q ` &X6XqX9X*X*X2XqX",
"rX0X0X0X3X0X9X%X^.V.2.*.=.z =.-.t.z.k.m.f.CXV 5 a i rXhXzXbXt : : a lXzXzX#XD p r V CXf.r.c.j.0.-.<.x z %.n ) } $X&X<X*X=X*X2X3X",
"sXqXwXwX0XwXwX%X#XG.v *.z l &.-.;.7.u.f.SXM 6 F +XbXbXvXbXq > > y iXvXjXvXxXvXxXs 5 M AXh.8.8.-.-.%.l =.:.v Q  .%X*X9X<X4X0X4X1X",
"qX9XwXwXqXwX0X%XH.D.v 2.v x z &.-.,.d.CXL.u u Y.kXzXkXkXp & 9 V aXcXjXbXzXkXgXbXlXD 6 J.CX4.:.>.&.&.=.l *.x C.H.-X0XrXrXrXgXeX2X",
"sX:X9XqXqXtX0X%X#.^ B v m m j 2.*.2.b NX4 # D HXJXJXkXs 8 X 5 O.lXzXkX8XdXxXvXJXHXu 5 4 NXg.l *.z =.j x v B V.H.-XwXwXrXrXyXeX<X",
"sXqXqXqXqXqXqX$X@.H.oXoXnXK.g b c h uXZ u Z fXJXJXHXw w q $ Y.xXzXzX7XF w L JXHXHXxXa C F.f c b m k g `.mXoX) H.%XwXyXrXeXrXrX<X",
"wXwX0XrXyXyXtX&X+.] O * O + F.J.L.F.pX5 $ a vXjXxXxXL q $ @.xXlXzXsX..: t t L jXvXjXa r # ,XG.L.K.J.F.+ * O ] T.9XtXyXwXqXrX0X3X",
"pX0XrXrXrXyXtX&X+X` pX;X>X^.. . O O . a t +.2XvXvXvX=Xp 8 e O.zXxX#.0 : 9 $ t L 4XiX=X$ D   . . . . o 0XpXwX/ o.:XsXkXkXwXrX0X0X",
"rXrXrXrXeXgXtX:X+X/   o     @.O.H.H.#.] p +X.XrXgX8XxX X1 e : H.] % : p +X8 X 8 P 4X Xa [ @.;XH.@.#X+.    X ` ' @XtXkXyXqX0X>X0X",
"tXrXtXyXtXyXtX&XT.` o X     o       o t w  X. i O. X XX.} e . . .   a +.+X]     X P +.e i   O .     X o     W +X&X7XtX9X%X:X9X9X",
"tX7XtXtX6XtXqX*XO.[             . @   F 2 w o . t @.` o.} a . . O . a } ` ] ]   .   p w w     . . @   X   o ` ] *X0X0XwX>X9X9XqX",
"7X6XtXqX9XwX0X%XH.]   &     o     @   t w } $   . 9 X.` I t   o .   & I +.[ ;X{ $   I w 2         o .       ! { %X0X0XrXqXrXeXqX",
"qX0XqXwXwX0X0X;X@.E sX:XsXyX  o X   o r p @.O.u o   t Z $           o % { #X..pX^.] X.r r             sX6XsX/ #.%X0X0XwXrXyX0XeX",
"9XwXwXwX0XwX,X;XH.! 6 u y y 0X9X#.$X#.H.t Y.yX@.: @ . >       o.o.3     9 H.rXiXwXwX#.r @.+.Y.Y.sX9X>Xu y u ( $.-X0XiX0X9XeXrXrX",
"6XqXwX,XyXeXwX-XO._ BXBXMXaXy 5 t y >   a u >XyX .a         +.#.o.} e     r  X0XiXaXi a   5 5 5 5 u C aXNXNXE X.1X2X3XpX3XwXyX0X",
"*X9X,X%X2X2XyX-X$.F.n 4.n B L.NXnXuXJ.< u # =X-XwXyXr   t O.9XiXsXY.5     L 1XxX3X.X9 9 5  .aXuX(.nX`.n 4.n )  X<X=X;X3X-X3X:X&X",
"*XqX,X#X<X5XyX-XO.V.5.u.f.y.3.4.s.c f V.O a i #XrXrXtX@.$.xXqXwX>Xr .   a 2XjX2XH.Z y @ ) f k s.3.y.3.y.6.s.^ ] *X-X-X-X*X:X&X&X",
"2XeX0X&X5X5XqX%X@.C.3.0.l.l.e.8.>.4.n K.< y 9 .XjX4XrX9XlXzXsX,XD   : Z jXrX9XjX.., 5 < K.n 3.8.e.r.u.u.0.i.V.X.;X2X9X9X5X*X&X9X",
"4X4X2X=X8X+X:X$X$.C.y.j.k.j.c.j.e.8.=.j K.+ P e  XjXhXvXvXzXqXD   : i pXjXvXrXX.: Z + K.m %.u.q.j.j.v.q.q.-.Z.Y.:XtXwX0X9X2X2X4X",
"gX4X=X=X&X+.&X:X[ J ,.q.k.k.j.j.q.0.t.,.k K.O P 9  XvXvXwX,X2 2 & Z iXcXvXxXo.p D O A.x :.u.l.k.x.q.7.z.w.1.Q Y.$XqXyXyXrX2X4XiX",
"eX<X#X%X8X+X$X%X| C.1.0.0.7.w.w.j.0.r.t.:.c K.O Z L L 4XcXbX$.% r yXlXjXkXu s F   G.k &.8.l.0.z.0.w.w.0.q.,.V.| $XqXtXqXkXgX2XgX",
"1X*X>X-XtX&X,X%X| ^ <.0.w.0.0.7.0.z.j.j.e.:.c Z.> y i a a ] @...Y.#.| a a s s < Z.c 3.7.e.w.z.0.0.w.0.0.q.1.V.Y.%XwX9X6XkXkX8XtX",
"@X8X>XwX9X=X;X;X{ C.>.q.q.q.0.0.0.q.k.k.r.7.=.b L.M . 5 D i P i i a a D t   6 L.c 2.8.q.q.q.q.0.q.q.q.q.k.y.C...*XwXpX>X6XdX7XdX",
"8X8X,X>X*X<X;X;X..C.3.r.q.j.q.q.w.q.k.k.j.q.,.%.j K.J.5 1 +Xo 9 e   +X$ u F.K.m =.8.q.j.k.j.0.t.0.0.r.r.j.y.V..X3XpXxXwX>X&X@X:X",
"8X6X-X^.=X2X3XXX{ C.3.e.j.j.q.r.0.q.k.x.k.q.7.,.p.j b ;Xi eXX X X   lX. uXg v 3.8.q.j.x.k.j.0.t.0.q.u.e.q.3.V. X*XrXiX0X9X=X*XqX",
"<X>X;X%X<X2X3X2XX.Q 3.e.r.l.r.q.0.q.k.x.k.q.0.6.-.5.m nX6 eXX X     -X+ BXx 5.;.0.j.k.x.k.k.w.0.q.e.e.e.0.,.~ o.1X9X3X3X9X-X;X;X",
"9X>X;X;X2X<X;X<Xo.Q v 9.0.q.e.q.0.q.k.x.x.j.0.7.u.,.=.mX6 wX        ,X* mX*.>.b.q.j.k.x.x.k.q.q.q.q.e.e.0.,.~  X8X6XqX9XqXqX>X*X",
"yX>X;X%X<X1X*X<XX.Q <.6.0.q.q.q.0.q.k.x.k.j.q.w.0.6.4.I.V >X  1 3   fX+ mX3.8.7.q.j.k.x.x.k.r.q.q.q.e.0.7.,.~ +X@X7XkXtXqXtX9X>X",
"dXtX-X%X=X<X*X%XX.Q =.7.0.q.q.q.w.q.k.k.k.j.j.k.q.v.5.MXC sX% 1 w $ wX; MX4.i.w.j.j.w.j.k.j.l.j.q.0.e.0.0.,.~  X&XkXxXyX9XqX5X=X",
"&X6X9X=X<X2X2X=XX.Q =.6.7.0.q.j.j.j.k.k.z.j.k.k.c.w.5.MXC fX% e $ 5 bX< MX<.t.j.k.j.w.w.j.z.l.j.w.0.7.7.6.:.~ @.*XrXyXeXyXzXgX=X",
"dX6X:X%X2X3X-X*X} ^ v -.-.,.7.q.j.k.j.j.w.z.x.x.k.r.5.MXC JX1 q q t JX6 mX5.e.k.k.k.j.w.j.j.k.j.q.;.-.-.>.2.Q #.=XrXgXeX9X5X<X>X",
"@X9XyXqXeX*X=X-X| Q 2.:.=.-.;.0.j.j.j.j.z.j.x.x.x.r.5.ZXA HX2 8 w 2 JX; ZX5.e.c.x.x.z.w.j.j.j.q.7.;.=.&.>.2.Q #.*XyXeX<X&X<X=X&X",
":X>X5X5XqX9X9X-X| ^ 2.-.=.-.6.7.0.0.0.w.w.z.x.x.c.l.5.SXA HXq q w 8 HX; SX5.l.c.x.x.z.w.0.0.0.0.7.;.-.=.>.2.C.H.;X9X:X&X&X>X*X%X",
">X-X&X=X9XjXqX%X .^ 2.>.-.-.;.7.6.6.7.7.0.w.k.x.c.v.d.AXA HXq w 8 q HX; AXd.v.c.x.x.z.t.7.7.6.6.6.6.,.-.>.=.^  .%X>X*X&X6XwX0X-X",
"#X-X0XrXrXrX6X:X@.V.2.y.>.-.-.;.;.-.;.;.6.0.r.k.l.v.d.AXA JX5 $ 8 e JX; SXd.u.l.k.j.0.6.;.;.-.;.;.;.;.:.>.2.Q  .$X>X,X;X3XpX0X,X",
"=X>XpXiX2X<X6X:X..~ 2.3.:.-.&.&.:.:.:.&.-.;.7.0.e.8.2.VXM cX%   X % cX= VX4.9.e.e.7.;.-.-.-.:.-.-.-.-.:.>.2.Q Y.:XqX0X3X-X-X>XsX",
"9X9X3X-X;X2X7X@XX.Q v 2.*.*.%.&.&.&.&.&.&.&.-.;.9.&.n `.6 ,X.       ,X+ `.n =.;.;.-.&.&.&.&.:.&.&.%.*.*.2.B _ Y.:XqX0X;X;X;X$X6X",
":X%X-X-X*XeXqX+X+.! B B v v x z &.-.&.&.%.&.&.%.%.l b (.6 @.        ^.O (.c *.&.%.&.%.&.&.&.&.&.*.l x c b B ( Y.:X9XiXpX3X*X:X:X",
"-X.X$X:X&X&X2X<X@.( A h - - m l =.&.&.&.&.%.%.=.z x h L., #.  X     H.. J.g x z %.%.%.%.&.&.-.&.*.c - - f Z / Y.>XwX2X2X*X*X5X&X",
"-X#X&X8X8X<X0X2X*X| Y u 4 - g v %.%.&.&.%.z z z l j g V.> ] X     o ] . Z.d j l l z %.%.&.&.%.l v c - 6 u W [ T.2X3X2X<X<X<XeX<X",
"2X=X&X5X*X*X2X2XY.} / R u y f c l x *.&.z z %.l j j d G.# O.  X X X ] O G.h j l x %.%.z %.%.x x c f y a R ` '  X2X4X2X<X1X&X5X&X",
"&X&X&X*X*X=X=X1X&XY.} ` T Z 0 - g k j l l l l j j c g D.> $.X X   X #.. G.g d j j j l x x j k b f 0 Z R ' T.+X&X2X0X4XeX<X1X@X X",
"o.o.#.#..X.X.X X+X XX.' E T y y - = - d c c h b d g f D.: O.    &   ] . _ f g c b g c c d - = = , y T T [ X.X.+.@.+X@.H. X#.+.X.",
"R R Y Y P P Y W I I I W Y a r : > . + = = * * * - + + O           o   o O = * = * * * = * + + 8 % 8 L i P Z I Y I Y a Y Y Y R Y ",
"E E E E E E W E W E E E E Y T a p 8 % > > > 5 > < . . $ $     .   X       . . . . . @ 9 , 9 8 p p L T T ! T ! ! W W R R W T E W ",
"/ [ [ E [ [ _ _ _ $.! _ $.E ' / W U L p t t t w t 5 $ 5 q $ t : e % e 1 1 t : 5 % q e e r p L U U / E _ _ ! _ ! [ ` / ` [ E ! E "
};
