/* XPM */
static char *_511011225445[] = {
/* columns rows colors chars-per-pixel */
"64 64 256 2 ",
"   c black",
".  c #010101",
"X  c #020202",
"o  c gray1",
"O  c #040404",
"+  c gray2",
"@  c #060606",
"#  c #070707",
"$  c gray3",
"%  c #090909",
"&  c gray4",
"*  c #0B0B0B",
"=  c #0C0C0C",
"-  c gray5",
";  c #0E0E0E",
":  c gray6",
">  c #101010",
",  c #111111",
"<  c gray7",
"1  c #131313",
"2  c gray8",
"3  c #151515",
"4  c #161616",
"5  c gray9",
"6  c #181818",
"7  c #191919",
"8  c gray10",
"9  c #1B1B1B",
"0  c gray11",
"q  c #1D1D1D",
"w  c #1E1E1E",
"e  c gray12",
"r  c #202020",
"t  c gray13",
"y  c #222222",
"u  c #232323",
"i  c gray14",
"p  c #252525",
"a  c gray15",
"s  c #272727",
"d  c #282828",
"f  c gray16",
"g  c #2A2A2A",
"h  c gray17",
"j  c #2C2C2C",
"k  c #2D2D2D",
"l  c gray18",
"z  c #2F2F2F",
"x  c gray19",
"c  c #313131",
"v  c #323232",
"b  c gray20",
"n  c #343434",
"m  c #353535",
"M  c gray21",
"N  c #373737",
"B  c gray22",
"V  c #393939",
"C  c #3A3A3A",
"Z  c gray23",
"A  c #3C3C3C",
"S  c gray24",
"D  c #3E3E3E",
"F  c #3F3F3F",
"G  c gray25",
"H  c #414141",
"J  c gray26",
"K  c #434343",
"L  c #444444",
"P  c gray27",
"I  c #464646",
"U  c gray28",
"Y  c #484848",
"T  c #494949",
"R  c gray29",
"E  c #4B4B4B",
"W  c #4C4C4C",
"Q  c gray30",
"!  c #4E4E4E",
"~  c gray31",
"^  c #505050",
"/  c #515151",
"(  c gray32",
")  c #535353",
"_  c gray33",
"`  c #555555",
"'  c #565656",
"]  c gray34",
"[  c #585858",
"{  c gray35",
"}  c #5A5A5A",
"|  c #5B5B5B",
" . c gray36",
".. c #5D5D5D",
"X. c gray37",
"o. c #5F5F5F",
"O. c #606060",
"+. c gray38",
"@. c #626262",
"#. c gray39",
"$. c #646464",
"%. c #656565",
"&. c gray40",
"*. c #676767",
"=. c #686868",
"-. c DimGray",
";. c #6A6A6A",
":. c gray42",
">. c #6C6C6C",
",. c #6D6D6D",
"<. c gray43",
"1. c #6F6F6F",
"2. c gray44",
"3. c #717171",
"4. c #727272",
"5. c gray45",
"6. c #747474",
"7. c gray46",
"8. c #767676",
"9. c #777777",
"0. c gray47",
"q. c #797979",
"w. c gray48",
"e. c #7B7B7B",
"r. c #7C7C7C",
"t. c gray49",
"y. c #7E7E7E",
"u. c gray50",
"i. c #808080",
"p. c #818181",
"a. c gray51",
"s. c #838383",
"d. c #848484",
"f. c gray52",
"g. c #868686",
"h. c gray53",
"j. c #888888",
"k. c #898989",
"l. c gray54",
"z. c #8B8B8B",
"x. c gray55",
"c. c #8D8D8D",
"v. c #8E8E8E",
"b. c gray56",
"n. c #909090",
"m. c gray57",
"M. c #929292",
"N. c #939393",
"B. c gray58",
"V. c #959595",
"C. c gray59",
"Z. c #979797",
"A. c #989898",
"S. c gray60",
"D. c #9A9A9A",
"F. c #9B9B9B",
"G. c gray61",
"H. c #9D9D9D",
"J. c gray62",
"K. c #9F9F9F",
"L. c #A0A0A0",
"P. c gray63",
"I. c #A2A2A2",
"U. c gray64",
"Y. c #A4A4A4",
"T. c #A5A5A5",
"R. c gray65",
"E. c #A7A7A7",
"W. c gray66",
"Q. c #A9A9A9",
"!. c #AAAAAA",
"~. c gray67",
"^. c #ACACAC",
"/. c gray68",
"(. c #AEAEAE",
"). c #AFAFAF",
"_. c gray69",
"`. c #B1B1B1",
"'. c #B2B2B2",
"]. c gray70",
"[. c #B4B4B4",
"{. c gray71",
"}. c #B6B6B6",
"|. c #B7B7B7",
" X c gray72",
".X c #B9B9B9",
"XX c gray73",
"oX c #BBBBBB",
"OX c #BCBCBC",
"+X c gray74",
"@X c gray",
"#X c gray75",
"$X c #C0C0C0",
"%X c #C1C1C1",
"&X c gray76",
"*X c #C3C3C3",
"=X c gray77",
"-X c #C5C5C5",
";X c #C6C6C6",
":X c gray78",
">X c #C8C8C8",
",X c gray79",
"<X c #CACACA",
"1X c #CBCBCB",
"2X c gray80",
"3X c #CDCDCD",
"4X c #CECECE",
"5X c gray81",
"6X c #D0D0D0",
"7X c gray82",
"8X c #D2D2D2",
"9X c LightGray",
"0X c gray83",
"qX c #D5D5D5",
"wX c gray84",
"eX c #D7D7D7",
"rX c #D8D8D8",
"tX c gray85",
"yX c #DADADA",
"uX c gray86",
"iX c gainsboro",
"pX c #DDDDDD",
"aX c gray87",
"sX c #DFDFDF",
"dX c gray88",
"fX c #E1E1E1",
"gX c #E2E2E2",
"hX c gray89",
"jX c #E4E4E4",
"kX c gray90",
"lX c #E6E6E6",
"zX c #E7E7E7",
"xX c gray91",
"cX c #E9E9E9",
"vX c #EAEAEA",
"bX c gray92",
"nX c #ECECEC",
"mX c gray93",
"MX c #EEEEEE",
"NX c #EFEFEF",
"BX c gray94",
"VX c #F1F1F1",
"CX c gray95",
"ZX c #F3F3F3",
"AX c #F4F4F4",
"SX c gray96",
"DX c #F6F6F6",
"FX c gray97",
"GX c #F8F8F8",
"HX c #F9F9F9",
"JX c gray98",
"KX c #FBFBFB",
"LX c gray99",
"PX c #FDFDFD",
"IX c #FEFEFE",
"UX c white",
/* pixels */
"x.b.c.x.l.x.g.D.A.V.Z.S.Z.S.D.C.Z.A.Z.A.S.Z.K.).~.].{._.{.%X&XXX6X9X5X4X8X7X5X8X6X8X1X9X3XwX5X5X4X5X7X8X7X6X5X4X0X<X%X&X&X$X#X%X",
"v...B V D V A K E P L J Z B m l j x l h l h s d f j l l k l c b z b x j j g f l s f u d r d p d h h g f d d g h k h j x c z l l ",
"N.@.x B m x A G C m N S A V z r w j l p u a f l j h c B b d a l x M m x k a y a e u t i q r w y y t r r e r r r 9 r p a a a p u ",
"a.>.c x A b V M x B P L M x m B g k p w t i u u l f k M N z l n l m M m b h u u w r y p y r w e y y i p p i t e t a s u u d g d ",
"z.:.x j H.Z.K.n.G.i.-.#.%.&.{ P ! 4.B.S.j.9.u.A.r.&.T m k k z x m B m b n l i y t 0 0 q e 0 0 q y t r r r r w 0 w r e 9 w a f s ",
"v.} l x HXFXUXHXIXJXKXKXFXJXUXIXUXLXMXlXkXjXnXPXKXLXLXIXUXLXvXeXMXzXqX=XXX~.G.C.x.i.r.9.t.q.u.a.b.j.i.e.w.r.y.y.w.w.q.0.w.t.t.e.",
"m.@.v b sXDXKXHXJXGXPXUXIXPXJXZXHXJXSXBXBXmXMXSXIXIXKXHXKXUXPXGXIXUXHXFXPXPXKXIXVXkXgXyXaXwXaXgXKXVXkXiXtXyXiXpXsXaXpXaXiXyXuXpX",
"h.:.f b !.JXFXUXUXKXLXLXGXKXUXIXHXUXKXmXcXMXFXUXGXKXIXIXKXHXKXIXGXPXLXLXUXIXJXPXUXFXHXVXZXjXbXNXUXGXbXfXpXiXuXyXpXuXiXpXuXtXdXvX",
"x.=.s f B.UXKXPXUXJXUXDXUXKXKXJXFXUXFXPXAXHXUXHXUXZXUXAXGXUXPXJXIXIXHXLXUXAXUXJXUXGXGXVXnXxXMXLXUXHXnXuXtXiXpXyXfXwXpXuXxXrXeXdX",
"x.o.n b P.AXFXPXGXuX|..X}.-XOX0X2X0XuX1XxXzX6XBXtX0XaX<XqX1X7X6X,XtXrX6X3XqXqXgX3X5XrX+X@X;X@X'.!.T.Q.(.Q.R.'.fXtXaXhX7XrXtXfXkX",
"x.4.N n q.KXGXUXUX<X_.>X`.=X+X@X1X<X+XH.].NXjXKXLXHXHX].-X2XUXFXHXwX).rXcXjXwXgXKXHXUXAXHXUXLXKXKXFXDXPXUXHX5XcXgXaXpXaXxXgXcXZX",
"b.e.v z ] UXJXIXGX<XJ.m.Z.[ T M.:.;.PXL.9.a. XC.q.XXM.f.E.LX^.c.c.w.bXUX4XLX0./.PXUXHXUXKXDXJXUXHXUXUXGXAXLX0XUXCXMXbXHXUXCXZXPX",
"n.#.c k O.SXKXJXPXdXU.>.S.m.4.:.r.M.UX;.4.w.h.c.0.b.g.a.l.JX!.b.S.+.e.kXlXLX%XU.<XcX7XUXAXPXUXHXUXLXDXIXUXIX:XSXHXUXHXJXLXKXIXJX",
"l.o.l j Q JXUXJXLX$X`.:X+X*X|.Q.UXAXHXKXHXFXJXUXbXP.%XQ.<XCXXXV.oX XU.*Xm.pXUXxXzXZX<XUXLXIXIXAXSXUXPXGXFXBX8XUXUXGXrXlXDXPXUXGX",
"k.&.l s j DXUXPXPXqXI.|.'.+Xn.Z./.UXUXHXcXmXUXDXeXOX+X].+XtXm.'.UX%XtXr.C.K.IXUXCXkX4XFXKXHXJXUXJXUXPXPXUXAX1XrXUXNX<XcXLXLXLXKX",
"M.} N u b rXDXLXLX7XY.XXE.W.i.c.NXFXDXUXtXJX-XPXfXE./.{.V.DXHXHX>X).A.z.F.4XKXPXJXGXUXJXPXUXJXHXUXLXGXPXHX4X<XKXDXUXCXUXLXKXUXLX",
"n.@.k t j @XHXPXUX3XQ.!.oX[.q.gXLXUXGXvXBXFX`.UXUX<X/.A.k.#.XXR.!.(.D.yXHXLXUXDXSXUXHXUXAXPXPXGXUXBXUXxX7XbXsXJX}.0.NXHXUXLXHXJX",
"x.#.a i a _.FXPXLX1X'.oX%X|.b.bXGXZXwX#X3XUX).GXoXH.J.-X{.{.R._.,X*X:XVXKXUXAXIXUXVXJXKXUXJXJXUXIXUX8XiXUXSXiXmXHXUXCXFXCXUXPXUX",
"k.%.t s u A.GXIXLX$XR.'.[.}._.ZXPX;XZ.^.UX7X7XIX1Xb.XXOX&Xt.A.UXNXUXlXUXUXPXLXUXHXLXGXUXAXIXIXHXDX<XUXUXNXCXF.B.gXUXbXUXUXGXZXKX",
"l.*.y s a w.KXIXIX+XW.{.`.).!. XU.T.(.A.CXmXmXPXF.*X(..X.X9.J.b.zXJX4XFXPXAXUXFXUXFXKXDXUXJXPXtX0XUXZXZXUXDXuXJX8XxXm.LXAXUXUXKX",
"x.&.a u f +.IXKXPX+X(.`.(.).`.U.)./.l.S.NXDXUXHX/.^.F.oXOXS.(.Q.SX5XtXPXHXPXPXGXUXZXUXUXiXPX6XmXAXDXUXHXFXUXpXKXmXUXPX3X.X[.:XIX",
"x.$.s t a _ IXHXJX.X_.~.).[.*XoX,.^.Z.(.0XIXUXDXd.m.c.'.P.JXwX6XLXHXVXkXUXUXJXUXBXUXHXbXsX0XKXKXUXFXHXFXHXJXtXJX0XMXPXcXOX;XiXNX",
"l.%.i a w ] LXKXHX[.|.[.%X`.~.Y.^.AXf. XP.GXCXtX>.].%XXX`.3XSXaXfXSXfX#XGXGXKXUXUXDXPXoX=XIXxXUXGXJXFXUXUXJXsXIXVX2XLXNXlXDXKXbX",
"l.*.t j 7 X.LXUXIXW.R.E.%X~.A.S.R.Y.B.x.M.FXU.W.].}.;X~.S. XH.&XIX@XMXiXKXUXKXHXHXUXLX`.*XoXgXJXUXSXUXLXZXUXxXLXJXPXbXMXxXHXAXbX",
"m.X.s g a O.JXPXLX|.'.`.~.W.!.Q.k.p.e.T.A._.s.@X~.I._.^.6.G.BXAXNX8XAX6XUXUXJXPXGXIXLX[.UXUXHXPXGXUXSXIXIXFXMXJXJXUXbXmXcXvXsX0X",
"z.#.j f t ' KXLXJX(./.L./.I.P.(.g 0 ;.y.n.P._.~.t. .a.=.X   S.UXlXHXUXsXCXGXKXLXPXLXIXCXGXLXUXPXIXGXUXZXUXUX0XbX}.&XqXDXxXiXpXsX",
"k.%.j a y / UXJXHXU.V.(.P.B.F.s.p   d m o A Q q   ].,X# ` 6.g.!.B.v.v.3.XX.XlXKXLXFXFXUXGXKXUXGXIXGXIXPXgX3XsXNXnXLXdXtXeX3XOX%X",
"c.#.a a d ) UXJXUXV.(.R.6.&XG   O   +     @ X . + eXMXq.a ,.NXUXLXUX<XiX4XiX-XUXLXPXUXGXUXGXLXGXPXJXKX7XhXJXgXGXHXMXtXaXfXFXAXrX",
"b.+.d k f ( KXPXPXb.Z.R.t.:X< . X   + =       t (.UXGXLXhXUXLXFXJXJXUX.XFXrXjXAXKXFXUXCXUXUXFXUXPX3XgXFXPXLXxXPXIXUXtXpXZXvX8XpX",
"x.@.c m i ] ZXUXCXD.b.9.DX3.X . X       -     B IXDXUXUXFXNXLXZXUXJXUX!.KXmXUXUXUXDXKXUXPXUXqXaX:XUXPXJXLXFXNXHXUXFXrXrXwXpXrX4X",
"z.#.m M u 1.DXIXIXZ.qX=XE.A M D U m f } z R Z W Y 2XGXUXlX[.*XU.dXAXmXrXUXHXSXLXlXUXHXUXJXBX/.@XVXIXFXIXHXUXzXUXSXUX5X`._.I.7.+.",
"v.@.c b s l.IXJXLXb.3XnXsX.     +   O       o   . w 6XFXUXSXKXUXGXUXpXtXIXkX#XZ.k.UXHXAXUXBXOXNXMXDX{.bXUXCXuXKXLXJX6X@X(.m.:.o.",
"c.$.h d y k.UXIXLX|.uXY.^..   # #     . . N.D.#.  X P KXDXUXKXbXUXVX,XnXJX#XbX6XwXZXUXKXLXGXUXAX1X/.e.tXUXJXsXHXKXzXsXyXdXgXJ.).",
"x.$.f s r k.JXHXUX!.UXUX/.n +     @ .   { fXMXvXh D R.$X>XXX-X5X5X>XB._.dXJXVXNX,XDXJXGXLXUXGXUXUXqX].1XSXKXNXUXUXvXiXsX8XyX>X} ",
"x.$.f s u n.JXJXUX).yXiXSX9XH   o   . + =.>XY.x.v.c.^.%X(.wX&XpXzXuX-X%X+X.XJ.JXAXUXPXSXLXUXJXJXXX..4XrXDXUXvXHXCXgX4XcX-XT.1.} ",
"z.%.f f d G.PXUXGX'..XoXY.'.w       .     x w 6 ( %XcX6Xh.g.~.qX-XmX1XKXGXY.9X&XjXDXPXUXBXHX8X_.:.2.UXJXUXGXbXjXuXgXeXt.$.o.{ ` ",
"z.%.s s d I.JXUXHX'.LXLXkXl.p 8 o $ H v @ =   # e 7X0XT.9XUXCX).tX`.UXJXJXeX4XPXeX=X|.IXmX<X<.0.N.( bXHXJXUXhXpXdXyXh.[ ^ [ N N ",
"z.%.u t i U.CXJXUX_.KXUX*XpXAXVXY     X & 5 z   M J.4XDX!. X6XHXUXDXUXUXKXLXUX^.3X8.y.I.8.3.p.V.:.Q.KXUXLXNXdXtXwXjX%X! Q R Y } ",
"z.%.r w y R.NXGXMX.XLX8X;XCXDXeX8X=.`.[     O r P.4XE.'.jXPXpXVXOX#XI.Q.UXUXdXAXu.b.0.*.~.aX^.N.3.F.qXmXGXUXuXpXjX4XaX^.w.p.$.` ",
"z.%.r w i ~.VXPXUX].UXKX`.yX0XqX4XIXPXFXW.} .XyXV.tXzXaX1X0XHXIXrX'.#XmXZX*XfX3Xt.S.y.R.M.iXS.Q.N.}.l.d.>XLXdXyXuXhXiXwX&X2.:.q.",
"v.#.z u t |.GXLXDXOXLXVXiXSXJXUXKXUXHX=XV.XXwXNXoXpXZXKXLXsXJXGX9XMXW.wXiXLXKX[.^._.C.oXR.S.^.E.(.R.A.G.x.v.W.iXpXsXiXdXfXwXJ.C.",
"x.+.i r i }.PXLXUXG.UXUXOXUXKXKXLXIXUXs.K.Y 3XMX'.J.xXKXUXlXyXhXKXIXUXVXPXUXAXXX|.(.V.I.W._.D./.T.Q.b.A.x.s.}.fXuXiXeXyXlXBXxXZX",
"j.*.s p r P.KXUXUX!.IXZX5X5XC.~.kXcXVXC.~.n.%.mX9XwXD.OXHXPXKX|.IXDXJXUXdXxXvXF. XoXC.W.!.!.!./.~.E./.P.Z.m.^.iXpXpXsXnXUXUXLXNX",
"h.:.a s w n.GXIXLX1.V.3Xr.Z./.E. XKXK.3Xn.I.k.*XFX4XbXhXW.sXZX0X,X,XiX-XUXUXK.T.].!.x.).I.E.!.i.C.G.Z.x.k.s.OXxXpXuXuXxXIXFXPXhX",
"x.$.7 t p m.JXJXPXw.v.L.I.a.R.B.A.AX>XeX,XE.Y.F.O.@X7X].lXjXSXnXfXUXDXUXJXDXl.{.Y.L.S.Q.n.tXvXUXnX/..XT.0XLXpXVXeXaXgXxXZXMXUXSX",
"v.$.e u u h.CXKXKXy.f.z.h.M.c.j.L.(.UXZXGXs.[.b.i.i.$XUXH.P.2X%XnXVXKXHXUXyXP.c.n.b.Q.v.CXVXUXBXPXCXPXFXUXUXcXbXtXjXvXMXGXFXKXZX",
"c.$.k f w w.zXIXUXr.H.x.D.S.z.b.A.V.K.FXPXZXn.s.B.Z.C.u.gXwX8XqXW.>X).oXn.D.tX/.:.].].8XAXUXKXHXUXHXUXJXDXUXjXZXsXxXxXvXDXUXKXUX",
"v.X.f p t u.zXUXSXd.j.b.C.l.%.c.!.Q.G.Q.NXGXJXtXb.N.D.K.(.2XMX5XW.eX+Xi.{.iXb.k.w.%XUXUXFXUXSXUXKXUXZXUXPXLXCXcXtXVXPXLXKXUXBXUX",
"z.o.e r 9 u.vXLXUX5.a.l.z.m.PXE.Z.U.v.S.B./.IXLXGX~.v.D.'.8X5XUX+X7X..c.g.S _.1XcXIXJXUXFXUXUXFXUXUXJXUXJXJXDXkXbXnXnXNXGXPXAXlX",
"z...8 0 q u.MXIXFXa.h.M.k.v.GXx.V.N.I.E.v.b.@XfX9XS.A.s.v.pXIXVXZ.I ,.y.b.W.CXUXJXUXKXFXUXNXLXUXFXGXUXUXSXGXlXjXsXfXxXAXPXPXDXNX",
"x.X.9 q u b.NXPXKX9.i.b.f.G.zXr.F.G.l.M.^.L.Z.^.oXk.M.M.$.g.UXPX%X:.u.V.z.j iXDXDXUXHXPXUXUXKXUXUXCXPXUXIXUXyXuXtXtXgXZXPXKXHXJX",
"b.o.y t i {.bXJXUXi.h.v.C.6.8.G.C.B.A./.~.U.~.J.4XZ.N.Z.A.w.V.UX$XK ) f.j.F K.UXUXIXUXSXLXSXIXFXDXUXJX7XOXqX8XuXpXyXaXcXZXHXLXUX",
"b.X.i 0 q iXzXJXGX3.d.q.i.V.b.f.k.J.Y.d.k.L.b.k.M.D.v.J.N.#.! <.r.c.o.V.a.w.] KXJXAXDXUXNXUXUXKXxXH.6.!.SXPXzXsXsXaXpXdXnXJXUXPX",
"c.| t 4 9 mXcXIXDXq.i.h.z.f.L.^.V.n.0.+X7XoX*X1.L.B.C.G.G.a.&.8XnXr.x.{ e.k.q.:.&XbXUXqXb.^.qXxXz.m.L.#XIXHXCXyXuXpXpXfXMXPXUXHX",
"z...i 0 j xXNXPXUXd.P.H.z.m./.a.u.b.D.0.Q.NX;XE.K.~.R.I.C.G.E.n.wXy.G.1.Q 2.4.O.| u.+Xj.T.F.(.m.M.f.D.!.IXIXSXaXtXuXaXkXBXHXKXJX",
"z.#.g f J aXAXHXPX[.UXHXIXIXFXMXx.C.S.G.R.A.c.W.~.R.K.U.`.U.R.z.y.<.W.D.c.K.v.c.w.V.Z.(.T./.z.).[.B.W.G.GXPXMXyXpXuXaXcXNXCXFXIX",
"l...y 5 p.gXgXUXLX:XJXKXUXHXDXKXr.U.Q.Y.Q.Q.!.W.W.Q.E.Q.^.W.T.Q.R.T.G.c.x.D.B.e.^.Y.T.R.^.E.D.L.H.U.R.^.KXUXBXtXrXpXpXxXMXMXGXHX",
"m.} s a l.rXhXVXSX=X4X3XeXyXhXjX<XwXeXqX3X2X0X2X4X4X7X8X5X2X6X0XwX7X0XwX2X>X5XwX9X5X7X6XqXqX1X7X1XeX7X X2X2XiXbXaXfXaXzXVXFXUXUX",
"v._ r q `.tXMXSXUXJXJXIXKXFXKXDXUXFXFXKXMXmXKXNXUXHXLXHXvXxXZXDXPXxXjXVXBXzXxXmXrXyXiXwXuXsXrXpXwXiXaXhXCXCXxXgXpXzXcXCXHXHXFXvX",
"x.O.s r CXNXLXUXCXIXIXUXKXUXJXLXUXPXJXUXHXGXUXFXIXGXUXUXDXSXUXPXPXLXUXPXBXcXmXNXcXMXVXlXxXBXbXNXSXMXkXbXvXGXHXLXjXBXCXGXUXUXUXJX",
"x.@.p N HXJXFXAXUXUXZXeX^.c.P j i c s y p r r w t j ( 4.6.5.2.+.,.3.9.4.=.=.-.@.-.2.4.&.=.3.,.3.:.:.=.2.X.$.o.o.*.X.F a e j I ! ",
"j.;.k y l r t l s p a r q l 7 t y b p q i e q y z i i a t p l j j y y f j h i 7 e p d w t g a h x f 0 r 7 a r 8 8 p i u r w i r ",
"z...s j 0 j d r d f f k i u r p t i w u a t a s t e t p p i u u u p l x i w u a a d g u s k d l t h g a q u y y i d i p u w u t ",
"c.r.<.2.,.4.1.,.5.<.o.3.6.:.8.:.9.:.1.a.t.8.u.q.i.u.w.0.r.t.p.l.l.z.c.z.k.b.n.h.c.x.c.h.l.v.h.v.c.S.A.B.F.R.W.R.R.W.Y.~.^.R.!.E."
};
