/* XPM */
static char *_511011459626[] = {
/* columns rows colors chars-per-pixel */
"64 64 256 2 ",
"   c black",
".  c #010101",
"X  c #020202",
"o  c gray1",
"O  c #040404",
"+  c gray2",
"@  c #060606",
"#  c #070707",
"$  c gray3",
"%  c #090909",
"&  c gray4",
"*  c #0B0B0B",
"=  c #0C0C0C",
"-  c gray5",
";  c #0E0E0E",
":  c gray6",
">  c #101010",
",  c #111111",
"<  c gray7",
"1  c #131313",
"2  c gray8",
"3  c #151515",
"4  c #161616",
"5  c gray9",
"6  c #181818",
"7  c #191919",
"8  c gray10",
"9  c #1B1B1B",
"0  c gray11",
"q  c #1D1D1D",
"w  c #1E1E1E",
"e  c gray12",
"r  c #202020",
"t  c gray13",
"y  c #222222",
"u  c #232323",
"i  c gray14",
"p  c #252525",
"a  c gray15",
"s  c #272727",
"d  c #282828",
"f  c gray16",
"g  c #2A2A2A",
"h  c gray17",
"j  c #2C2C2C",
"k  c #2D2D2D",
"l  c gray18",
"z  c #2F2F2F",
"x  c gray19",
"c  c #313131",
"v  c #323232",
"b  c gray20",
"n  c #343434",
"m  c #353535",
"M  c gray21",
"N  c #373737",
"B  c gray22",
"V  c #393939",
"C  c #3A3A3A",
"Z  c gray23",
"A  c #3C3C3C",
"S  c gray24",
"D  c #3E3E3E",
"F  c #3F3F3F",
"G  c gray25",
"H  c #414141",
"J  c gray26",
"K  c #434343",
"L  c #444444",
"P  c gray27",
"I  c #464646",
"U  c gray28",
"Y  c #484848",
"T  c #494949",
"R  c gray29",
"E  c #4B4B4B",
"W  c #4C4C4C",
"Q  c gray30",
"!  c #4E4E4E",
"~  c gray31",
"^  c #505050",
"/  c #515151",
"(  c gray32",
")  c #535353",
"_  c gray33",
"`  c #555555",
"'  c #565656",
"]  c gray34",
"[  c #585858",
"{  c gray35",
"}  c #5A5A5A",
"|  c #5B5B5B",
" . c gray36",
".. c #5D5D5D",
"X. c gray37",
"o. c #5F5F5F",
"O. c #606060",
"+. c gray38",
"@. c #626262",
"#. c gray39",
"$. c #646464",
"%. c #656565",
"&. c gray40",
"*. c #676767",
"=. c #686868",
"-. c DimGray",
";. c #6A6A6A",
":. c gray42",
">. c #6C6C6C",
",. c #6D6D6D",
"<. c gray43",
"1. c #6F6F6F",
"2. c gray44",
"3. c #717171",
"4. c #727272",
"5. c gray45",
"6. c #747474",
"7. c gray46",
"8. c #767676",
"9. c #777777",
"0. c gray47",
"q. c #797979",
"w. c gray48",
"e. c #7B7B7B",
"r. c #7C7C7C",
"t. c gray49",
"y. c #7E7E7E",
"u. c gray50",
"i. c #808080",
"p. c #818181",
"a. c gray51",
"s. c #838383",
"d. c #848484",
"f. c gray52",
"g. c #868686",
"h. c gray53",
"j. c #888888",
"k. c #898989",
"l. c gray54",
"z. c #8B8B8B",
"x. c gray55",
"c. c #8D8D8D",
"v. c #8E8E8E",
"b. c gray56",
"n. c #909090",
"m. c gray57",
"M. c #929292",
"N. c #939393",
"B. c gray58",
"V. c #959595",
"C. c gray59",
"Z. c #979797",
"A. c #989898",
"S. c gray60",
"D. c #9A9A9A",
"F. c #9B9B9B",
"G. c gray61",
"H. c #9D9D9D",
"J. c gray62",
"K. c #9F9F9F",
"L. c #A0A0A0",
"P. c gray63",
"I. c #A2A2A2",
"U. c gray64",
"Y. c #A4A4A4",
"T. c #A5A5A5",
"R. c gray65",
"E. c #A7A7A7",
"W. c gray66",
"Q. c #A9A9A9",
"!. c #AAAAAA",
"~. c gray67",
"^. c #ACACAC",
"/. c gray68",
"(. c #AEAEAE",
"). c #AFAFAF",
"_. c gray69",
"`. c #B1B1B1",
"'. c #B2B2B2",
"]. c gray70",
"[. c #B4B4B4",
"{. c gray71",
"}. c #B6B6B6",
"|. c #B7B7B7",
" X c gray72",
".X c #B9B9B9",
"XX c gray73",
"oX c #BBBBBB",
"OX c #BCBCBC",
"+X c gray74",
"@X c gray",
"#X c gray75",
"$X c #C0C0C0",
"%X c #C1C1C1",
"&X c gray76",
"*X c #C3C3C3",
"=X c gray77",
"-X c #C5C5C5",
";X c #C6C6C6",
":X c gray78",
">X c #C8C8C8",
",X c gray79",
"<X c #CACACA",
"1X c #CBCBCB",
"2X c gray80",
"3X c #CDCDCD",
"4X c #CECECE",
"5X c gray81",
"6X c #D0D0D0",
"7X c gray82",
"8X c #D2D2D2",
"9X c LightGray",
"0X c gray83",
"qX c #D5D5D5",
"wX c gray84",
"eX c #D7D7D7",
"rX c #D8D8D8",
"tX c gray85",
"yX c #DADADA",
"uX c gray86",
"iX c gainsboro",
"pX c #DDDDDD",
"aX c gray87",
"sX c #DFDFDF",
"dX c gray88",
"fX c #E1E1E1",
"gX c #E2E2E2",
"hX c gray89",
"jX c #E4E4E4",
"kX c gray90",
"lX c #E6E6E6",
"zX c #E7E7E7",
"xX c gray91",
"cX c #E9E9E9",
"vX c #EAEAEA",
"bX c gray92",
"nX c #ECECEC",
"mX c gray93",
"MX c #EEEEEE",
"NX c #EFEFEF",
"BX c gray94",
"VX c #F1F1F1",
"CX c gray95",
"ZX c #F3F3F3",
"AX c #F4F4F4",
"SX c gray96",
"DX c #F6F6F6",
"FX c gray97",
"GX c #F8F8F8",
"HX c #F9F9F9",
"JX c gray98",
"KX c #FBFBFB",
"LX c gray99",
"PX c #FDFDFD",
"IX c #FEFEFE",
"UX c white",
/* pixels */
"_.|.].!.W.W.E.W.W.Q.!.E.U.J.D.A.B.S.A.Z.D.A.V.A.S.A.Z.Z.A.A.Z.C.A.Z.A.S.D.S.Z.V.Z.Z.S.F.G.A.N.v.l.c.x.l.l.c.x.j.k.n.x.M.c.h.c.b.",
"v b z g h x c l n b c l h g h k k v c c m n b N M n v x x v n m v v v v v c z k x h s s h x v v z z g l l n x l c z k f z k ` s.",
"z g s i p k l p z z k h g g k z j z h f k j g l h h f d s d g j h g f g g f a p f a i a h k h d u k k z 8 8 0 g y a i r p p U c.",
"j s s a p j k u f g j h g f d f c v k h l k h l f h j h g f g g j h h h h h f d p u t y p d f g k s 8 s p x f j p h r d l c H n.",
"p d g f d j k d a d f g d s a a d g s a j k g k f f d d s d f g d d s d f f f d k j g s p a d g f f j E *.g.n.C.C.m.b.C.N.^ I x.",
"z.C.V.b.m.n.c.b.v.v.v.c.x.x.v.n.V.Z.B.B.S.Z.M.M.V.M.b.v.n.B.A.S.C.V.V.V.Z.A.Z.Z.C.b.k.x.J.#XgXJXJXPXUXKXKXKXIXIXUXZXUXUXCX) U k.",
"CXUXLXZXLXJXAXIXIXIXIXPXKXJXJXJXIXUXLXKXPXGXNXmXVXNXmXBXDXKXLXLXPXLXKXKXLXPXPXLXUXUXUXUXKXBXgXrXdXeXtXwXAXDXNX0X9X>X7XyX|.9 l a.",
"eXnXgXuXNXCXnXPXFXJXLXLXGXCXMXbXJXPXKXKXIXHXMXbXcXcXmXSXIXUXIXHXIXPXLXLXLXPXLXLXLXJXJXPXUXGXvXsXxXfXxXpXIXGXNX<X1XrX1XjXY.d V l.",
"BXgXeXzXIXzXKXPXIXIXKXKXNX!.E.z.7XwXNXMXLXLXKXLXMXkXUXPXUXLXHXPXIXLXJXUXLXHXUXLXJXUXUXGXUXUXGXMXNXsXmXxXJXGXIXpX4XwXyXiXf.i c x.",
"DXpXNXAXPXUXUXKXJXSXUXvX4X,XxX`.HXUXPXFXLXIXFXUXUXFXJXAXDXGXLXIXFXPXPXJXFXGXLXHXGXUXLXSXJXUXUXIXrXsXHXUXUXGXFXmXeXaXsXuXi.t N F.",
"KXUXJXFXKXUXMXNXVXAX8XP.K.w.n.0XiXJXSXIXPXIXSXUXFXUXPXUXIXPXLXDXUXUXIXIXUXUXLXPXIXGXUXMXFX0XtXrXuXdXkXSXPXUXJXIXKXIXGXcXi.7 z A.",
"UXSXBXvXMX1XqXN.V.n.].^.C.t.7.2.f.}.uXUXUXPXJXHXyXnXpXsX6X5X9X8XqX7XrXxXLXIXGXUXUXHXSXsXHXGXUXKXUXHXxXkXKXUXJXPXIXUXUXFXv.u B I.",
"GXJX(.R.W.m.u.-.b.Q.).k.l.i.=.0.H.).uXDXJXDXUXLXbXUXHXUXUXLXAXnXdXhXVXCXGXPXAXJXAXUXJXiXuXIXPXvXbXFXFXhXLXGXKXLXDXJXPXKXA.l K ).",
"KXUXmXHX0X1XE.K.<.q.a.4.>.o.=.L.`./.pXZXUXJXIXHXZXNX0X8XgXMXNXCX<XiXJXMXzXUXUXUXUXDXFXtXUXKXKXyXqXbXHXhXIXGXUXLXIXIXIXLXD.x I [.",
"KXUX0XN.I.-.| O.1.4.r.y.t.a.s.k.f.6.f.h.A.(.$XZXUXLXbXdXAXZXzXbXaXpXJXMXdXHXIXGXIXSXUXiXZX=XZXUXnXFXJXmXUXPXPXGXLXKXKXLXF.b ! %X",
"PXSX=._ [ %.%.%.4.r.q.w.y.w.7.y.w.u.c.h.h.v.d.qXFXmXbXuXNXbXhXSXVX5XlXMXxXLXIXLXUXIXBXiXMXIXUXFXsXvXnXBXFXLXJXIXPXLXPXPXS.j Y +X",
"FXUX2.F ' _ | o.| :.>.e.>.] ;.:.4.<.>.g.6.w.w.MXUX7XPXbXAXcXbXaXiXpXCX0XMXUXDXHXUXGXLXuXmXJXUXGXvXLXAXvXFXUXHXIXHXHXIXPXV.f W +X",
"GXUX6X<.G C E P ` ' ( { o.[ ..:.} <.O.O.7.0.d.FXHX#XaX;XgXeXaX0XyXyXeXqXcXUXPXUXJXUXUXiXmXSXKXUXxXtXFXCXCXUXLXJXUXLXPXPXb.z / *X",
"UXNXAX`.w.H ( @.L o.5.| o.6.%.;.i.5.3.0.H.'.tXJXCXeXjXVXVXAX7X2XmXZXeXSXBXUXAXHXLXJXDXpXIXUXPXPXUXSXHXVXPXFXUXIXUXJXJXKXi.c W $X",
"HXmXVXcX1X[ $.Y.*.g.{.B.c.(.Z.n.I.U.n.G.zXCXLXIXUXZXfXdX7XbXqXzXbXzXmXNXUXGXUXPXKXHXLXhXbXkXDXIX6X_.SXbXCXUXHXZXLXHXKXPX:.x K oX",
"MXpX3XiXVX_.A.].P.B.%XXX).;X}.}.:X0X=X9XPXJXIXLXJXDXUXcXLXGXVXvXUXPXUXHXSXLXJXKXUXJXLXaXdXbXUXSXpXSXFXhXUXHXKXUXPXKXPXIX) c J *X",
"cXpXAXJXLXJXlXCXSXlXUXUXZXUXLXJXKXAXAXUXGXDXUXJXKXHXIXvXPXUXFXvXBXAXLXLXZXUXPXHXLXJXDXuXcXFXPX*X@X,XSXkXZXIXGXLXIXKXKXKXZ c G <X",
"BXwXmXPXJXGXBXvXAXPXIXLXJXKXIXKXJXUXLXGXUXJXSXUXUXUXKXUXFXUXBXbXMXkXKXlXUXlXSX4XvXUXUXzXvX9X9XoX%XdXwX8XrX8XMXHXPXJXGXJXj v V &X",
"iXdXzXUXJXrXNXbXNXMX1XpXLXmXNXKXbXcXUXPXKXFXUXHXPXDXUXPXGXvXmXNXzXNX6XJXMXUXJXpXMXKXCXmXUXaXzXUXKXIXJXDX0X2XbXmXIXKXKXUXg m c |.",
"eXjXnXHXKXVXKXvXLXLXLXJXUXPXZXUXbXnXLXJXHXPXLXKXJXJXUXvXLXNXvXxXbXNX&XvXFXnXGXqXNXkXDXMXdXbXnXHXKXKXVXlXsXtXaXnXPXGXHXUXb b b $X",
"qXrXqXBXBXgXVXIXGXPXDXPXUXHXPXLXKXJXUXIXPXUXLXUXUXKXJXjXBXbXvXNXvXcX(.rXAX$X[.9XvXCXkXtXvXzXnXUXHXbXjXZXaXyXiXbXmXUXUXPXz N C @X",
"T.].v.h.m.4XBXkXBXMXZXGXHXKXPXJXPXLXPXJXJXPXSXIXUXJXHXMXVXnXlXmXxXSXnXkX5XMXUXwXtXgXLXkXDXVXgXPXUXVXeXjX0XyXtXCXnXGXUXGXn v M *X",
"vXgXG.+XtX0X;XKXNXhXJXHXDXUXLXUXLXPXKXPXIXUXFXUXKXGXPXLXSXBXzXBXbXUXFXFXUXkX#XwXwXiXjXsXfX1XcXtX9XrX$X#X:X>XXX<XmXZXDXxXm l b %X",
"uXGX9.Q $.o.L V.bXcXNXDXnXlXvXhXKXLXKXIXHXUXGXIXGXAXLXKXVXVXBXPXMXZXUXUXLXPXzXbXAXeXxX9XgXkXaX6XsX6X1X=X4X2X0X7XaXJXIXqXl v V  X",
"2X8Xt.-.} | ` t.5X:Xc.N.M.V.hXZXNXMXnXNXgXLXJXPXMXvXHXDXCXVXSXHXUXKXJXPXFXZXpXcXVXUXkXjXUXAXJXvXMX[.#X@X`.^.9X-XeXHXUX8Xb k N +X",
"7.=.+.d.{ ..;.O.-.1.^ -.7.5.`.1X+X.X.XOX(.gXDXKXMXjXSXbXBXMXZXnXCXUXKXKXUXIXtXaXqXsX9X=XeXyXyXzXuX'.$X:X.X/.%X[.dXSXDX,XV k N *X",
"` -.w.T.y.+.X.#.&.O.*.>.,.$.*.b.5.,.1.8.>.}.aXzXIXcXBXtXhXlXZXxXUXKXVXGXKXUXDXIXHXUXGXUXKXGXIXlXkXzXpXrXdXpXtXjXlXLXNX`.b Z L OX",
"q.X.y.+XV.{ &.....o.) %.;.X.&.,.5.[ ,.} *.5.9.uXnXNXpXwXjX*XoX&XY.fX6XrXtXPXNXvXLXHXUXnXnXCXtXiXyXaXsX=XyXyX5XuXGXIXxXw.m g Z &X",
"} | 4.4.h.^ o. .) | {  .O.&.,.-.:.9.9.9.2.%.;.T.zXcXlXW.J.OXiXhXaX1X$X,XdXnXCXUXUXFXmXnX4XwXcX9XD.` ~.6X6X1X6X4XBXUXMXp.g h n }.",
"O.} _ ` `  .+...` ~  .$.=.-.;.1.3.2.=.o.} O.,.@.>XlX0XoX%X1X.XoX|.M.OX2XrXJXAXSXJXNXNXvXE._.sX3X].kX5X7X4Xp.%X5XkXZXIX4.v r A (.",
"} L ` ~ Y G E P ( G / ~ ( _ ' o.*.` [ Q O.@.o.O.t.bXwXsX9X4X[.P.#XFX$XaXnXJXNXmXKXlXLXSXuXpXwX}.'.iXjX}.*X5X<X-XwXpXAXo.l 0 J `.",
"E E W U A l z ~ ' ~ { H E  .@.+.{ { L  .~ /  . XqXBX$X@X].&XpX>XeX8X}.tX<XUXSXUXUXJXSXaXFXNXgX7X8X8X>X5XOX0X:Xw.2X0X8X] 5 i m }.",
"` ) V ^ H Q K  .Q L ! ! -.#.=.5.<.` $.O.#._ ;XDXUXxXpX*X,X'.oX:X9X8X#X5X:XbXAXPXfXUXBXbXUXsXtX&XiXwX8X7XY.5XrX5X6X6X2XH 5 t b {.",
"s.:. ...h...O.{ 0. .} 9.K.6.r.P.v.<.:.W.M.6XUXPXIXBXuXW.%X<X%XoX4XOXpX7XoXnXIXIXKXUXrXlXSXcXjXoXdX8XaX2XM.*X4X:X5X2XwXa i 9 C `.",
"8X1Xd.2.Q.%. .v.^.j.:.e.Y.7.j.{.{.3.5.Z.xXUXZXLXGXLXSXnXOX%XtXtX%XsXrXMXGXLXUXHXPXxXeXvX0XBXzX-X{.5X;X%X|.$X[.T.&X4X6Xt 0 u N _.",
"T.~.Q.E.Q.x.c.V.Z.K.R.@XwXrXiXiX5XfXpXvXUXKXDXLXKXLXUXxXdXiXpXpXuXpXyXcXJXUXLXvXJXbXfXtXvXMXSX7XM.,X6XtX6XoX,X%X!.,XaX0 e y V +X",
"sXhXAXkXBXXX=X,X5X3XuXHXGXUXAXUXJXUXUXDXJXHXUXIXJXPXLXnXiXsXtXpXpXfXdXMXLXUXPXmXUXbXzXyX;XVXnXx. .uXeX;XrX[.5X;X[.5XsXu e w x '.",
"uXnXnXMXvX9X3X9X0XiXfXfX=XHXzXBXLXAXUXJXJXJXUXJXKXPXGXmXtXdXeXpXtXiXyXjXBXAXGXNXGXVXgX6X[.yXhXeX4XrXNX^.2X^.tX{.@X0XsXv u i m  X",
"tXmXiXzXjXmXpXyXuXwXlXUXgXPXCXUXgXtXMXMXLXJXLXKXPXHXGXvXsXpXrXpXaXsXrXsXcXVXPXLXBXsX5XR.8.(.rXtXVXqXdXtXw.T.'.P.-XtXfXL t e l [.",
"gXlXlXkXKXzXhXyX4XkXFXJXhXBXvX5XL.*XhXvXUXUXHXGXUXAXLXkXcXtXiXpXpXpXeXaXzXmXJXLXLXBXaX=X).$XtXmX}.`.-X.X9XrXcXg..X8XdXX.h f B &X",
"rXwXuXMXHX9X<X9X7X6XlXIXMX XJ.g.=XUXUXAXAXLXUXUXUXMXPXhXNXrXaXpXrXtXwXgXnXmXAXVXGXZX<X3XuX`.G.$X.X5XaX&XqXqX6XN.Y.#X7X&.p y z OX",
"jXfXrXMXmX7X=X9X0X$XOX].].Y.S.M.R.BXLXUXFXJXUXCXLXnXGXlXNXuXiXpXpXaXpXmXJXKXPXFXAXlX@XrXuXlXpX'.qXiXaXrX.X9X5XaX4XsXhXt.h s n &X",
"cXyX7XoXwX{.+X{.`.M.L._.oXR.u.k.cXUXNXUXaXjXUXLXHXnXZXvXnXaXtXpXuXyXrXbXLXIXUXKXSXUX5XCXlXvXxXsX@X0X}.;X$X}.:X3XqXpXeX8.t p C 4X",
"dXrXuXmXaX%XXX&Xb.z.~.'.oXC.8. .vXyXbX&XT.).cXPXUXgXaX=X6X#X7X'.{.$XwXtXAXVXUXKXIXJX8XvXNXkXZX3X$X0XOX|.3XaXaX2X6X3X6Xc.l j n =X",
"pXkXpXvXjXaX0X$X].Z.m.g.z.l.k.S.C.U.m.k.~.v.^.hXPXBXvX+X&X0XXX;X9X>XdX X*X,XfXGXFXIXJX%XzXUXSX8X2X).2X:X].$X}.).I.(.rXb.M r Z oX",
"fXZXzXnXzX7XOX}.].k.T.c.K.m.K.I.E.W.5.7.D.Y.9._.SXUXlX[.}.=X2X5X[.T.^.@X6X^.rXCXLXHXdXrXBXhXqXVX-XqXXX#Xk..XXXl.@X8XiX_.w d b |.",
"mXjXnX_.f.L./.0.w.g.p.k.D.(.f.Q.^.P.A.v.w.:.E.Q.BXLXMXtX@X3XfX2X,X9X X4XaX4XAXkXIXUX0XhXUX;XPXLX6XgX&XI.~.+X7X&X8X0XtX+Xf h m T.",
"IXkX0X7.y.r.,.6.5.-.$.*.| q.O.+.=.w.p.r.p.B.m.kXLXCXSXsX.XdX7XeX5X+X}.qXqX8XqXNXCXPXXXUXHXyXGXLX1XUX#X>X%X+XpXdX9X4X%X>Xp l n T.",
"cXlX9X~ _ #.} X.i.O.d.0.z.x.U.t.v.m.c.] X.>.{.DXUXJXKX1XuX5X4X8XH.%X,XeX2XsXvXmXCXVXjX$X~.5XDXUXgXrXBX8XaXiXtXyX4X0X.XuXw k z ~.",
"PXUXqX4.:.X.o.l.3.e.,.5.N.c.k.c.g.N.S.3.t.$X).DXSXUXUXsXIX3XtXOX@X5X:XqX7X;XkXvXcXjXbXVX#X>X5XJXAX:X+XzXuXaXtXaXXX:XtXaXU e M A.",
"HXPXbX#Xz.f.c.6.D.w.n./.R.D.#XS.Y.+X6X/.G.].L.UXUXFXHXjX;XsX3X=X2X@X7X#XiXbXMXMXmXAXtXxXpX@XvXBXZXeX`.).J.{.oX'.wXxXMXnXQ p N B.",
"HXIXGXvX&XB.g.s.W.l.b.).Z.Y.rXU.Y.*X0XE.I.Q.aXJXUXFXKXNXbXFXZXSXPXbXvXBXvXxXmXmXvXcXsXrX_.@XyXiXtXaX6X8X4X>X0X7XpXqXsXiXo.0 V B.",
"UXUXLXPXnX4X*X+XyX5X=X;XbXUXnXUXUXJXKXMXUXDXIXIXKXNXCXvXnXKXPXIXIXbXzXMXmXnXMXbXSXMXgXzX3X:X&X[.|.].|.5XiXwX6X1XjXiXxXaX8.a b S.",
"JXLXGXPXCXiX0X5XfXiXsXgXVXIXqXPXFXzXxXvXUXLXPXKXUXCXMXcXnXKXUXIXKXcXhXbXMXNXMXcXcXlXpXcXhXiXuXyXsX2X*X*X4XtXyXsXtXxXxXhX^.6 n g.",
"JXUXLXHXkX4X3X5X8XeXsXUXZXLXPXUXIXUXUXCXHXSXPXUXxXjXmXGXIXUXFXvXLXNXcXNXAXAXCXBXMXmXuXuXpXrXiXhXeXqXqX@X#XeXtXpXCXvXUXsX9Xf c C.",
"I ` @.7.r.a.D.W.N.I.a.S.b.v.b.j.j.m.c.9.8.5.2.*.` K x s y u s t g p t i d s p d r g i z ~  .#.#.a.k.A.n.Y.qXNXUXHXKXDXUXKXk M v.",
"y u w u u r d f t l w e 0 u 9 s g f i t f d p p a t 0 i p p h i s f a a f a p h u z f t j p a r p i g d d d r t q V n d k a H S.",
"a i q u s p d u i i v z t y q g f d i a d i p c g s e p y r k h i f p i d p y g r h l a f 9 d h l h i d g d z x b z > z f i R A.",
"W.!.Y.!.~.E.!.T.^.Q.U.Y.W.Z.n.F.B.F.S.A.B.c.g.l.k.k.a.j.u.6.u.w.e.i.e.q.i.t.0.u.6.2.2.1.6.+.*.@.o.3.1.5.2.,.8.:.<.,.7.3.,.7.q.b."
};
