/* XPM */
static char *_511014688980[] = {
/* columns rows colors chars-per-pixel */
"64 64 256 2 ",
"   c black",
".  c #010101",
"X  c #020202",
"o  c gray1",
"O  c #040404",
"+  c gray2",
"@  c #060606",
"#  c #070707",
"$  c gray3",
"%  c #090909",
"&  c gray4",
"*  c #0B0B0B",
"=  c #0C0C0C",
"-  c gray5",
";  c #0E0E0E",
":  c gray6",
">  c #101010",
",  c #111111",
"<  c gray7",
"1  c #131313",
"2  c gray8",
"3  c #151515",
"4  c #161616",
"5  c gray9",
"6  c #181818",
"7  c #191919",
"8  c gray10",
"9  c #1B1B1B",
"0  c gray11",
"q  c #1D1D1D",
"w  c #1E1E1E",
"e  c gray12",
"r  c #202020",
"t  c gray13",
"y  c #222222",
"u  c #232323",
"i  c gray14",
"p  c #252525",
"a  c gray15",
"s  c #272727",
"d  c #282828",
"f  c gray16",
"g  c #2A2A2A",
"h  c gray17",
"j  c #2C2C2C",
"k  c #2D2D2D",
"l  c gray18",
"z  c #2F2F2F",
"x  c gray19",
"c  c #313131",
"v  c #323232",
"b  c gray20",
"n  c #343434",
"m  c #353535",
"M  c gray21",
"N  c #373737",
"B  c gray22",
"V  c #393939",
"C  c #3A3A3A",
"Z  c gray23",
"A  c #3C3C3C",
"S  c gray24",
"D  c #3E3E3E",
"F  c #3F3F3F",
"G  c gray25",
"H  c #414141",
"J  c gray26",
"K  c #434343",
"L  c #444444",
"P  c gray27",
"I  c #464646",
"U  c gray28",
"Y  c #484848",
"T  c #494949",
"R  c gray29",
"E  c #4B4B4B",
"W  c #4C4C4C",
"Q  c gray30",
"!  c #4E4E4E",
"~  c gray31",
"^  c #505050",
"/  c #515151",
"(  c gray32",
")  c #535353",
"_  c gray33",
"`  c #555555",
"'  c #565656",
"]  c gray34",
"[  c #585858",
"{  c gray35",
"}  c #5A5A5A",
"|  c #5B5B5B",
" . c gray36",
".. c #5D5D5D",
"X. c gray37",
"o. c #5F5F5F",
"O. c #606060",
"+. c gray38",
"@. c #626262",
"#. c gray39",
"$. c #646464",
"%. c #656565",
"&. c gray40",
"*. c #676767",
"=. c #686868",
"-. c DimGray",
";. c #6A6A6A",
":. c gray42",
">. c #6C6C6C",
",. c #6D6D6D",
"<. c gray43",
"1. c #6F6F6F",
"2. c gray44",
"3. c #717171",
"4. c #727272",
"5. c gray45",
"6. c #747474",
"7. c gray46",
"8. c #767676",
"9. c #777777",
"0. c gray47",
"q. c #797979",
"w. c gray48",
"e. c #7B7B7B",
"r. c #7C7C7C",
"t. c gray49",
"y. c #7E7E7E",
"u. c gray50",
"i. c #808080",
"p. c #818181",
"a. c gray51",
"s. c #838383",
"d. c #848484",
"f. c gray52",
"g. c #868686",
"h. c gray53",
"j. c #888888",
"k. c #898989",
"l. c gray54",
"z. c #8B8B8B",
"x. c gray55",
"c. c #8D8D8D",
"v. c #8E8E8E",
"b. c gray56",
"n. c #909090",
"m. c gray57",
"M. c #929292",
"N. c #939393",
"B. c gray58",
"V. c #959595",
"C. c gray59",
"Z. c #979797",
"A. c #989898",
"S. c gray60",
"D. c #9A9A9A",
"F. c #9B9B9B",
"G. c gray61",
"H. c #9D9D9D",
"J. c gray62",
"K. c #9F9F9F",
"L. c #A0A0A0",
"P. c gray63",
"I. c #A2A2A2",
"U. c gray64",
"Y. c #A4A4A4",
"T. c #A5A5A5",
"R. c gray65",
"E. c #A7A7A7",
"W. c gray66",
"Q. c #A9A9A9",
"!. c #AAAAAA",
"~. c gray67",
"^. c #ACACAC",
"/. c gray68",
"(. c #AEAEAE",
"). c #AFAFAF",
"_. c gray69",
"`. c #B1B1B1",
"'. c #B2B2B2",
"]. c gray70",
"[. c #B4B4B4",
"{. c gray71",
"}. c #B6B6B6",
"|. c #B7B7B7",
" X c gray72",
".X c #B9B9B9",
"XX c gray73",
"oX c #BBBBBB",
"OX c #BCBCBC",
"+X c gray74",
"@X c gray",
"#X c gray75",
"$X c #C0C0C0",
"%X c #C1C1C1",
"&X c gray76",
"*X c #C3C3C3",
"=X c gray77",
"-X c #C5C5C5",
";X c #C6C6C6",
":X c gray78",
">X c #C8C8C8",
",X c gray79",
"<X c #CACACA",
"1X c #CBCBCB",
"2X c gray80",
"3X c #CDCDCD",
"4X c #CECECE",
"5X c gray81",
"6X c #D0D0D0",
"7X c gray82",
"8X c #D2D2D2",
"9X c LightGray",
"0X c gray83",
"qX c #D5D5D5",
"wX c gray84",
"eX c #D7D7D7",
"rX c #D8D8D8",
"tX c gray85",
"yX c #DADADA",
"uX c gray86",
"iX c gainsboro",
"pX c #DDDDDD",
"aX c gray87",
"sX c #DFDFDF",
"dX c gray88",
"fX c #E1E1E1",
"gX c #E2E2E2",
"hX c gray89",
"jX c #E4E4E4",
"kX c gray90",
"lX c #E6E6E6",
"zX c #E7E7E7",
"xX c gray91",
"cX c #E9E9E9",
"vX c #EAEAEA",
"bX c gray92",
"nX c #ECECEC",
"mX c gray93",
"MX c #EEEEEE",
"NX c #EFEFEF",
"BX c gray94",
"VX c #F1F1F1",
"CX c gray95",
"ZX c #F3F3F3",
"AX c #F4F4F4",
"SX c gray96",
"DX c #F6F6F6",
"FX c gray97",
"GX c #F8F8F8",
"HX c #F9F9F9",
"JX c gray98",
"KX c #FBFBFB",
"LX c gray99",
"PX c #FDFDFD",
"IX c #FEFEFE",
"UX c white",
/* pixels */
"R E T W ( Q P P T R R Y P I Y R W P X.^ [ Y ! R ! R R W E U I Y K L U R T P K L ! W T U L H K I Y T U P P U U P T T I Q H T U U ",
"<.2.,.>.,.=.$.=.+.;.5.6.3.,.=.#.6.3.i.i.9.3.<.6.5.5.6.6.4.2.2.3.7.5.3.<.;.%.&.=.:.>.,.>.=.&.;.2.w.e.t.y.t.9.<.*.@.o.X.@.X.$.*.%.",
"&.-.%.o. .` ' o.#.;.:.$.+.*.,.,.,.,.4.u.$.*.X.1.*.<.2.:.*.=.;.-.1.,.:.*.+. ...+.>.<.2.1.-.%.-.2.2.<.4.e.r.4.&.o.+.} o.+.*.;.<.*.",
"8.0.5.,.-.#.$.,.>.8.w.6.5.w.i.u.i.t.i.x.1.3.>.a.7.i.a.q.6.9.q.8.t.u.p.a.y.q.w.y.0.w.r.t.q.8.0.y.e.6.8.p.g.t.5.2.:.$.,.<.e.9.e.1.",
"0.q.6.2.2.:.-.1.>.6.9.4.2.9.t.t.k.i.j.k.0.5.9.z.r.h.j.y.q.y.u.0.q.e.u.a.i.t.t.i.u.u.s.j.z.z.x.b.h.t.e.s.h.i.9.6.4.;.4.3.e.0.t.4.",
"[ [ _ ) ' ( ! ( } } ] ( ^ _ }  .*.| =.@..._ ..-.o.%.$. .| O.X.' ` _ ' [ ] ` ` ] ) ) ` | O.O.o.O.&.o. .@.&.@.| ] / R W R W ! ` / ",
"P U L L U L H I P P Y W E L D S T F Q T Y L Y Q T T I K I E U D K J L T R U K J J J I R E T U Y T L H L T W T I U P P Y G I R W ",
"2.4.2.2.4.1.<.6.6.;.$.%.$.+.#.-.=.#.<.3.<.3.<.2.2.>.*.=.<.5.,.$.X.o.&.1.5.<.&.+.#.&.>.3.3.<.1.4.4.,.*.#.=.1.4.1.#.=.;.6.%.>.:.<.",
"v.S.Z.n.M.C.B.M.G.x.z.c.x.h.p.z.l.j.k.V.k.C.B.c.Z.N.Z.l.l.y.h.z.e.x.v.k.c.v.k.z.Z.n.C.S.G.S.z.k.x.z.c.c.A.c.V.c.x.h.J.B.V.l.g.b.",
"V.D.A.C.A.Z.V.A.b.k.v.c.c.c.g.z.m.v.c.Z.b.G.D.N.V.N.S.m.N.j.v.b.n.g.c.n.f.c.A.x.c.c.A.S.Z.B.c.M.x.v.j.n.N.V.A.M.b.j.v.c.m.c.l.c.",
"P.L.G.D.A.b.l.n.z.x.N.v.x.m.c.n.V.M.m.D.D.Q.~.E.A.C.D.Z.D.M.B.B.A.v.V.H.V.A.D.x.l.z.Z.S.S.D.B.S.m.C.g.b.l.N.v.h.l.x.f.v.c.c.v.x.",
"B.Z.C.C.S.C.B.S.C.B.A.m.x.v.v.Z.G.D.V.N.m.C.Z.B.F.A.A.A.A.N.M.M.c.H.S.C.I.G.k.k.m.v.C.F.I.R.F.A.Z.F.x.b.z.b.j.e.p.M.l.Z.x.l.b.c.",
"N.G.G.Z.D.J.G.G.J.C.D.Z.n.z.z.F.E.W.T.G.F.A.S.S.Z.Z.Z.F.S.C.n.v.B.^.Y.Z.U.L.m.B.V.N.H.L.R.W.D.V.Z.S.V.N.F.N.M.i.f.C.c.A.x.x.n.x.",
"G.R.U.A.A.D.C.M.F.N.D.F.N.l.j.S.N.A.D.M.D.C.A.S.B.A.F.T.P.K.V.N.D.R.).~.Y.T.I.A.V.D.E.T.I.P.Z.C.A.A.F.F.E.Z.A.j.M.A.b.n.b.B.N.k.",
"N.D.D.C.S.F.S.D.Z.N.D.Z.m.x.l.C.G.L.P.A.R.H.A.V.C.D.F.R.L.I.S.F.b.C.P.E.Y.H.A.Z.H.P.^.E.U.Y.F.D.S.D.D.T.Q.F.Z.v.A.A.F.b.V.F.B.z.",
"Z.S.Z.S.F.C.B.F.S.A.F.m.l.v.v.C.C.S.F.C.^.Y.H.C.C.A.N.G.N.S.V.G.M.K.B.Z.~.F.n.(.!.E.~.E.Q.(.I.G.A.D.C./.W.I.D.S.B.Z.~.Z.F.G.B.b.",
"Z.Z.A.D.F.A.m.l.n.D.B.V.k.v.c.F.H.S.D.P.R.I.F.Z.F.B.A.S.D.F.B.A.b.n.K.U.W.S.S.S.R.Q.!.W.~./.R.F.F.N.A.Y.).Z.S.Z.x.c.C.F.V.B.A.A.",
"D.S.Z.V.M.M.N.B.b.V.G.n.B.j.v.N.A.C.C.D.F.A.C.C.Z.B.K.U.T.U.Z.A.G.N.Z.D.R.F.A.m.F.U.E.R.Y.U.H.V.U.F.A.F.Y.V.G.S.n.M.D.F.N.M.A.D.",
"S.D.A.N.v.v.B.F.D.J.Y.C.S.x.M.Z.C.C.C.C.V.N.B.Z.N.V.Y.Q.Q.T.S.A.N.A.E.Y.I.N.S.K.B.H.U.P.G.D.S.C.A.S.C.B.D.M.V.l.c.b.V.B.z.x.B.Z.",
"V.A.S.C.M.m.V.D.D.L.B.m.d.k.j.C.F.G.H.G.D.A.S.D.m.Z.E.Q.T.L.C.A.S.S.T.E./.K.D.N.N.F.K.G.C.V.Z.A.V.J.D.Z.F.F.G.z.j.k.b.v.k.x.M.M.",
"C.A.S.A.C.C.Z.A.Y.Q.F.S.b.Z.A.W.U.T.T.Y.P.J.D.Z.m.D.~.!.U.J.B.Z.S.F.R.R.^.G.V.z.Z.H.P.K.F.Z.B.M.z.N.k.f.h.M.Z.z.b.v.m.M.m.V.V.v.",
"D.S.Z.C.Z.A.S.S.S.D.H.n.S.B.L.E.W.!.Q.T.L.G.Z.N.N.F.^.^.W.Y.Z.V.B.G.!.T.Y.Z.D.S.G.I.W.!.T.G.M.x.b.Z.v.B.V.J.K.Z.A.V.Z.Z.Z.F.Z.l.",
"S.A.Z.Z.Z.Z.A.A.D.G.P.A.I.G.R.^.W.~.Q.P.D.A.S.S.Z.S.U.Y.W.~.H.Z.T.H.K.J./.Q.T.Z.A.J.R.W.U.S.m.x.h.v.k.F.D.G.Z.M.S.A.S.A.C.D.C.k.",
"V.Z.D.D.S.Z.C.C.V.H.V.A.M.F.D.R.T.Q.E.H.B.C.K.Y.F.V.Z.A.U.(.I.S.W.E.^.R.!.L.J.Z.c.N.S.F.C.b.c.c.n.n.g.D.Z.S.Z.S.A.A.D.A.V.S.A.x.",
"F.A.C.A.D.G.D.A.A.B.F.V.A.Z.H.B.(.I.G.B.S.M.L.A.B.A.F.S.A.S.A.V.Z.S.A.V.Q.l.<.b.n.z.b.b.j.c.M.l.M.m.l.A.F.E.F.B.W.K.C.V.D.F.V.c.",
"D.A.Z.A.D.F.D.A.Z.C.K.A.A.V.F.B.I.!.L.Z.L.J.l.L.J.A.C.K.E.T.G.B.C.H.A.G.^.7.f.n.v.t.i.b.M.n.b.l.v.c.h.m.b.Z.b.b.F.P.E.T.J.Z.V.Z.",
"D.A.Z.A.D.F.D.A.S.D.Y.G.D.N.F.Z.F.J.L.Z.z.F.I.M.B.V.V.B.A.J.P.L.D.m.D.6.| ~.l.k.z.t.u.v.M.m.b.x.v.c.k.n.z.c.x.N.D.H.J.F.C.B.C.S.",
"S.A.Z.A.S.D.S.A.A.S.Y.G.Z.b.D.S.F.H.n.A.U.b.G.B.B.I.T.D.A.Y.~.Q.J.C.7.O.'.G.S.v.l.v.b.z.j.c.b.z.v.z.l.b.x.z.c.V.V.V.N.m.b.b.N.V.",
"A.A.Z.A.S.S.S.A.C.V.J.C.M.l.C.A.c.L.Y.b.a.K.M.-.G.U.W.Q.~.~.U.S.p.j.Y I.v.n.K.j.n.S.S.m.v.b.c.j.x.j.k.z.v.z.x.v.l.N.G.F.B.b.M.C.",
"A.A.A.A.A.A.A.A.A.B.G.C.N.z.C.Z.H.Y.C.b.B.l.A Z.A.N.S.R.E.F.V.D.F.L X.H.U.R.a.M.Z.A.A.K.T.G.v.z.M.c.v.x.B.m.m.x.V.Z.S.D.S.A.A.A.",
"Z.Z.A.A.A.A.A.S.F.B.F.Z.Z.v.B.m.A.B.Q.I.z.1.` /.Z.B.V.D.D.C.Z.H.Q q _.F.j.g.V.5.v.B.Z.P.~.I.m.b.B.m.N.z.Z.Z.S.v.L.A.m.M.A.H.F.Z.",
"Z.Z.A.A.Z.Z.A.S.A.n.Z.V.Z.x.v.j.#.7.!.R.c.P 7.P.Z.A.n.l.B.L.B.e.U a I.M.N.A.x.t.w.M.S.V.G.G.M.v.x.x.b.s.M.V.D.c.N.Z.F.G.S.Z.C.Z.",
"D.S.Z.D.Z.A.Z.D.z.B.A.A.S.V.N.A.c.{ ( =.h.z Q.x.l...[ r.K.A.h.&.d Z i.V.K.c.V.0.r.N.J.m.g.k.v.x.x.k.c.b.l.l.c.x.l.m.N.V.F.D.V.V.",
"b.B.N.v.z.m.Z.S.v.Z.D.D.D.C.B.A.F.).H.#.J D *.U x.M.n.O.3.N.K.T e D.G.D.N.U.x.w.s.l.v.l.f.g.k.l.z.l.z.z.k.z.v.z.k.v.v.n.V.V.n.n.",
"z.N.V.l.k.m.D.S.v.V.Z.C.C.M.n.B.s.D.U.I.P.E G @.v.3.+.L.] m.M.a j OXS.z.C.Z.v.n.c.j.j.b.m.c.z.v.b.b.c.l.x.M.N.b.l.v.x.l.c.l.h.k.",
"n.N.Z.v.n.n.Z.C.Z.H.H.F.G.A.C.D.H.m.n.B.L.T.a   X.B A.(.Y.-.F O o.|.m.B.T.z.a.k.v.l.c.Z.S.N.v.v.M.V.b.l.m.A.Z.N.A.F.S.V.N.c.z.m.",
"A.v.b.j.n.g.c.v.l.b.v.z.c.l.j.x.x.I.V.B.f.E.9.  v <.'.>.F.E.% x K y.h.(.H.J.b.n.k.v.N.N.n.c.l.j.N.C.b.z.V.S.V.B.C.G.G.A.B.x.x.C.",
"F.k.k.p.x.y.j.z.v.M.b.c.n.v.c.m.b.k.b.7.8.} / E # r &.j.v.S   @.!.K.3.#.s.x.q.k.v.C.A.n.l.x.c.z.V.S.M.m.H.G.B.A.b.B.C.C.B.c.c.Z.",
"N.j.v.s.n.a.x.z.k.x.k.h.z.z.l.b.m.Y.o.4.D.~.W.R.{ s a *.| + n K (.z.).I.9.1.M.e.m.C.C.n.b.B.C.N.A.G.C.S.T.H.N.G.Z.A.S.J.I.G.A.J.",
"h.h.C.k.Z.k.M.l.x.b.x.l.v.v.v.N.F.Z.P._.K.s.b.v.Y.[ 5 4 H   i b ) A.B.D.W.).l.m.l.l.z.b.C.D.A.B.Z.D.V.F.E.F.b.F.D.Z.V.H.T.K.C.Z.",
"c.n.N.N.n.c.x.x.l.c.B.A.V.v.v.B.D.C.Z.Z.L.m.D.S.n./ H   8 9 O.| Z g -.B.N.g.m.z.m.g.l.S.H.S.C.N.C.F.C.A.T.T.F.S.F.Z.N.V.S.D.D.D.",
"N.V.B.n.l.j.z.b.n.N.S.G.Z.b.m.A.A.V.P.M.d.B.F.w.+.&Xx.w g p I ~.Y.%.Z T g.D.n.Z.a.g.b.M.M.S.K.G.Z.S.Z.Z.H.G.Z.V.F.K.I.H.M.z.c.M.",
"b.n.b.x.k.z.M.A.c.b.B.Z.M.x.b.Z./.L.B.l.v.m.3.:.H.B.F.T   x $.t.G.Y.W.8.K <.V.c.m.y.i.V.D.M.m.C.V.B.Z.S.C.Z.S.Z.j.N.G.D.n.l.v.B.",
"z.z.x.x.v.m.V.A.l.k.x.n.b.c.n.A.n.N.C.Z.N.f.>.Y.m.V.B.H.  ;.2.[ Z.M.n.Q.Q.h.+.u.j.k.x.c.V.I.F.f.L.D.H.F.v.z.n.c.v.M.C.C.N.n.c.l.",
"C.m.c.x.c.b.b.c.b.z.z.n.M.M.V.S.T.B.F.D.l.V.s.n.x.L.l.A.  C.OX' G.C.W.G.1.n.N.%.<.y.n.n.d.g.N.S.C.n.V.Z.z.z.N.B.Z.A.A.Z.A.S.N.x.",
"H.C.v.l.l.x.x.x.n.z.k.c.n.b.m.V.v.N.L.Z.x.V.N.I.e.i.B._ H R.Y.o.C.0.;.t.B.G.m.K.R.9.-.k.D.v.g.l.l.g.z.m.n.M.D.L.C.F.H.S.A.S.Z.M.",
"Z.B.n.x.z.z.c.b.z.k.k.x.x.l.v.B.P.H.B.m.J.n.d.c.(.*.} h ,.`.8.*.| P.Q.d.D.S.p.n.L.F.Z.n.h.j.b.b.v.z.j.z.b.c.v.C.H.I.P.F.C.B.b.h.",
"n.N.V.N.c.l.l.z.z.x.n.M.b.c.N.H.C.v.J.H.n.f.A.j.j.' R n u.{ $...(.m.K.V.h.j.C.k.k.k.x.g.t.i.k.x.r.r.q.u.c.c.c.S.C.S.A.A.J.P.D.v.",
"N.H.c.c.V.v.b.z.c.g.v.Z.c.M.f.S.S.Z.T.D.x.v.h.l.p.J.M ] ^.E.Q.R.*.9.H.j.j.v.l.l.M.V.c.y.0.t.u.q.l.s.9.e.l.k.k.Z.A.D.S.V.m.n.b.v.",
"x.G.B.M.N.k.x.c.c.c.h.x.k.l.v.B.c.x.C.b.z.n.v.Z.I.<.l W.E.a.y.c.T.&.N.Q.x.s.B.n.N.N.v.f.i.a.j.x.b.k.i.d.n.n.m.J.S.A.B.b.c.v.v.x.",
"c.V.v.m.A.B.m.z.h.b.h.z.v.f.M.h.j.l.n.c.b.M.n.H.x.D +..Xx.v.M.e.l.n.b.w.b.m.a.N.A.B.M.v.f.y.a.l.f.p.e.y.f.d.f.n.V.N.v.z.c.b.b.x.",
"x.b.c.M.S.F.Z.m.z.c.z.h.c.i.x.h.v.B.C.N.M.c.l.N.c.S Q.I.h.s.z.q.j.x.n.k.n.z.h.P.l.l.x.v.z.h.k.c.M.v.x.b.n.v.b.Z.n.b.c.v.M.V.B.b.",
"h.b.D.Z.m.N.S.J.F.l.c.y.u.q.s.V.N.D.S.V.v.j.k.z.*.#.}.c.l.s.g.c.M.p.x.A.g.y.k.F.n.m.b.x.c.b.b.x.z.j.l.v.c.z.v.m.B.N.m.n.N.Z.A.C.",
"n.v.S.V.v.B.Z.S.S.h.b.s.y.w.r.V.Z.F.A.V.c.v.V.j.Q ).E.n.t.c.p.y.w.m.y.2.e.a.q.l.K.G.B.z.k.c.c.j.v.z.m.A.C.C.D.S.D.D.C.n.v.M.Z.S.",
"Z.l.m.v.v.D.B.c.c.x.v.m.h.s.p.x.S.S.A.D.n.C.G.q.{ W.s.Z.a.c.h.b.j.a.6.i.r.e.r.z.M.v.z.z.x.v.m.B.c.k.M.S.C.A.F.C.C.D.D.N.x.x.m.V.",
"n.f.N.b.k.B.m.c.x.A.k.N.j.j.c.z.S.C.S.J.N.A.C.O.l.G.n.f.0.t.y.w.v.g.r.v.i.9.q.z.v.k.z.N.m.k.l.M.v.j.m.A.B.C.Z.b.z.V.G.Z.v.k.z.b.",
"l.a.h.v.k.l.m.v.F.N.x.M.g.z.z.v.Z.D.F.D.C.m.b.b.k.C.Z.m.z.y.9.i.j.y.p.z.v.c.x.l.v.V.c.z.b.V.S.x.z.n.l.m.x.A.n.c.M.S.M.b.x.x.m.k.",
"c.f.l.m.c.b.V.N.S.B.b.C.x.n.b.m.c.m.C.Z.N.v.z.k.C.N.x.l.v.l.u.0.p.a.g.k.l.m.V.b.v.V.m.N.V.C.Z.c.h.c.x.Z.N.S.c.j.v.B.v.x.x.c.V.b.",
"b.l.x.b.x.x.b.v.n.c.z.B.k.b.x.c.b.M.V.B.m.c.z.z.V.k.i.u.g.n.x.y.r.g.z.a.t.k.b.g.z.m.b.V.C.n.m.z.z.x.c.D.S.D.v.l.x.M.c.c.x.x.n.k.",
"x.l.z.x.l.l.x.z.z.l.k.n.g.x.z.z.Z.Z.B.n.x.z.c.b.b.g.s.y.r.l.B.x.y.k.v.p.0.a.l.a.l.c.z.M.m.j.x.x.n.z.j.n.N.M.v.n.b.C.M.N.n.l.k.i.",
"7.0.9.9.w.r.r.y.e.e.q.y.5.r.t.y.p.u.r.9.6.6.0.e.y.w.r.8.,.5.t.0.3.8.e.8.<.5.e.q.e.e.8.e.q.4.w.y.w.4.<.2.6.5.9.e.e.i.e.y.t.q.q.3.",
"Y Q R I R R Y R T R U E G E Q ~ T R R T U U T E E Y E W T Y I G P K U Y K L Y I R R J I L G T Q P G J D L G I Y K P D K I U Q T ",
"] X.[ ( ' ` / ) ( ` ) ] Q {  ...} |  .| { } ..o.[ ` ( ]  .` Q Q ) ! ^ ) ) ` ) R ^ ) Q ^ ~ W _ ) / ( { / ' / { ] ^ / R ~ ) / ' ( ",
" .%.+. .$.&.@.*.o.#.$.-.o.:.<.1.<.,.;.&.$.&.>.3.,.;.+.@.&.} ) ..| [ | o.%.,.;.| ]  .[  . .} o.}  .+.-...+...*.%.%.&.+.&.&.X. ._ "
};
